<?xml version="1.0" encoding="utf-8"?>
<!-- Generator: Adobe Illustrator 17.0.0, SVG Export Plug-In . SVG Version: 6.00 Build 0)  -->
<!DOCTYPE svg PUBLIC "-//W3C//DTD SVG 1.1//EN" "http://www.w3.org/Graphics/SVG/1.1/DTD/svg11.dtd">
<svg version="1.1" id="Layer_1" xmlns="http://www.w3.org/2000/svg" xmlns:xlink="http://www.w3.org/1999/xlink" x="0px" y="0px"
	 width="54.111px" height="82.538px" viewBox="0 0 54.111 82.538" enable-background="new 0 0 54.111 82.538" xml:space="preserve">
<path id="RDV_Logo" fill="#F4F1DE" d="M32.741,82.538c0,0,3.334-11.139,10.87-18.18c0,0.013-10.564-1.332-17.952-5.966
	c-3.654-1.887-17.392-11.875-19.349-28.03c0.357-5.071,5.559-15.933,18.719-19.946c7.379-2.355,16.526-0.692,17.954,0.349
	c1.162,1.416,0.99,10.428-5.459,15.661c-0.181-0.011-4.457-3.167-4.853-7.332c0.004,0.08-2.386,4.418,1.277,9.303
	c2.329,1.264,14.391,1.533,20.164-10.275c-0.63-2.569-4.438-14.249-18.139-17.336c0,0-9.527-2.72-17.682,1.966
	S8.174,11.098,4.086,19.131s-5.956,22.017-1.554,34.253s14.246,22.938,29.53,29.012"/>
</svg>
