<?xml version="1.0" encoding="utf-8"?>
<!-- Generator: Adobe Illustrator 17.0.0, SVG Export Plug-In . SVG Version: 6.00 Build 0)  -->
<!DOCTYPE svg PUBLIC "-//W3C//DTD SVG 1.1//EN" "http://www.w3.org/Graphics/SVG/1.1/DTD/svg11.dtd">
<svg version="1.1" id="Layer_1" xmlns="http://www.w3.org/2000/svg" xmlns:xlink="http://www.w3.org/1999/xlink" x="0px" y="0px"
	 width="90px" height="15.464px" viewBox="0 0 90 15.464" enable-background="new 0 0 90 15.464" xml:space="preserve">
<g id="body_x5F_text_separator_1_">
	<g>
		<g>
			<g>
				<polygon fill="#FFFFFF" stroke="#231F20" stroke-width="0.501" points="36.147,12.865 31.736,7.717 36.147,2.569 40.557,7.717 
									"/>
				<path fill="#231F20" d="M33.796,7.717c0.383,0.448,1.939,2.264,2.351,2.745c0.413-0.481,1.968-2.297,2.351-2.745
					c-0.383-0.446-1.939-2.263-2.351-2.744C35.734,5.454,34.178,7.268,33.796,7.717z"/>
				<path fill="none" stroke="#231F20" d="M38.241,3.511c0.383,0.449,1.938,2.265,2.351,2.747c0.413-0.482,1.967-2.298,2.351-2.747
					c-0.384-0.445-1.939-2.262-2.351-2.743C40.18,1.25,38.624,3.064,38.241,3.511z"/>
				<path fill="none" stroke="#231F20" d="M47.047,3.511c0.383,0.449,1.939,2.265,2.351,2.747c0.413-0.482,1.968-2.298,2.351-2.747
					c-0.383-0.445-1.939-2.262-2.351-2.743C48.986,1.25,47.43,3.064,47.047,3.511z"/>
				<path fill="none" stroke="#231F20" d="M38.241,11.952c0.383,0.447,1.938,2.263,2.351,2.744c0.413-0.481,1.967-2.297,2.351-2.744
					c-0.384-0.447-1.939-2.264-2.351-2.746C40.18,9.688,38.624,11.504,38.241,11.952z"/>
				<path fill="none" stroke="#231F20" d="M47.047,11.952c0.383,0.447,1.939,2.263,2.351,2.744c0.413-0.481,1.968-2.297,2.351-2.744
					c-0.383-0.447-1.939-2.264-2.351-2.746C48.986,9.688,47.43,11.504,47.047,11.952z"/>
				<path fill="none" stroke="#231F20" stroke-width="0.5" d="M9.925,10.462C9.513,9.98,7.957,8.165,7.574,7.717
					c0.383-0.448,1.939-2.263,2.351-2.744h10.193c0.413,0.481,1.968,2.296,2.351,2.744c-0.383,0.448-1.938,2.264-2.351,2.745H9.925z
					"/>
				<path fill="none" stroke="#231F20" stroke-width="0.5" d="M14.498,10.462c-0.413-0.481-1.968-2.297-2.351-2.745
					c0.383-0.448,1.939-2.263,2.351-2.744h10.193c0.413,0.481,1.968,2.296,2.351,2.744c-0.383,0.448-1.939,2.264-2.351,2.745H14.498
					z"/>
				<line fill="none" stroke="#231F20" stroke-width="0.501" x1="36.147" y1="2.569" x2="27.32" y2="12.865"/>
				<line fill="none" stroke="#231F20" stroke-width="0.501" x1="36.147" y1="12.865" x2="27.32" y2="2.569"/>
				<polyline fill="none" stroke="#231F20" stroke-width="0.501" points="36.147,12.865 27.32,2.569 26.614,2.569 15.372,2.569 
					10.913,7.665 15.372,12.865 26.734,12.865 27.32,12.865 36.147,2.569 				"/>
				<polyline fill="none" stroke="#231F20" stroke-width="0.3495" points="11.02,11.309 25.513,11.309 31.671,4.126 				"/>
				<polyline fill="none" stroke="#231F20" stroke-width="0.3495" points="31.671,11.309 25.513,4.126 11.02,4.126 				"/>
				<path fill="none" stroke="#231F20" stroke-width="0.5" d="M79.963,10.462c0.413-0.481,1.968-2.297,2.351-2.745
					c-0.383-0.448-1.939-2.263-2.351-2.744H69.769c-0.413,0.481-1.968,2.296-2.351,2.744c0.383,0.448,1.938,2.264,2.351,2.745
					H79.963z"/>
				<path fill="none" stroke="#231F20" stroke-width="0.5" d="M75.39,10.462c0.413-0.481,1.968-2.297,2.351-2.745
					c-0.383-0.448-1.939-2.263-2.351-2.744H65.197c-0.413,0.481-1.968,2.296-2.351,2.744c0.383,0.448,1.939,2.264,2.351,2.745H75.39
					z"/>
				<line fill="none" stroke="#231F20" stroke-width="0.501" x1="53.741" y1="2.569" x2="62.569" y2="12.865"/>
				<line fill="none" stroke="#231F20" stroke-width="0.501" x1="53.741" y1="12.865" x2="62.569" y2="2.569"/>
				<polyline fill="none" stroke="#231F20" stroke-width="0.501" points="53.741,12.865 62.569,2.569 63.274,2.569 74.516,2.569 
					78.975,7.665 74.516,12.865 63.154,12.865 62.569,12.865 53.741,2.569 				"/>
				<polyline fill="none" stroke="#231F20" stroke-width="0.3495" points="78.868,11.309 64.375,11.309 58.217,4.126 				"/>
				<polyline fill="none" stroke="#231F20" stroke-width="0.3495" points="58.217,11.309 64.375,4.126 78.868,4.126 				"/>
				<polygon fill="#FFFFFF" stroke="#231F20" stroke-width="0.501" points="45,12.865 40.59,7.717 45,2.569 49.41,7.717 				"/>
				<polygon fill="#FFFFFF" stroke="#231F20" stroke-width="0.501" points="53.853,12.865 49.443,7.717 53.853,2.569 58.264,7.717 
									"/>
				<path fill="#231F20" d="M42.593,7.717c0.383,0.448,1.939,2.264,2.351,2.745c0.413-0.481,1.968-2.297,2.351-2.745
					c-0.383-0.446-1.939-2.263-2.351-2.744C44.532,5.454,42.976,7.268,42.593,7.717z"/>
				<path fill="#231F20" d="M51.39,7.717c0.383,0.448,1.939,2.264,2.351,2.745c0.413-0.481,1.968-2.297,2.351-2.745
					c-0.383-0.446-1.938-2.263-2.351-2.744C53.329,5.454,51.773,7.268,51.39,7.717z"/>
				<line fill="none" stroke="#231F20" stroke-width="0.5" x1="10.913" y1="7.665" x2="0" y2="7.665"/>
				<line fill="none" stroke="#231F20" stroke-width="0.5" x1="79.087" y1="7.665" x2="90" y2="7.665"/>
			</g>
		</g>
	</g>
</g>
</svg>
