<?xml version="1.0" encoding="utf-8"?>
<!-- Generator: Adobe Illustrator 17.0.0, SVG Export Plug-In . SVG Version: 6.00 Build 0)  -->
<!DOCTYPE svg PUBLIC "-//W3C//DTD SVG 1.1//EN" "http://www.w3.org/Graphics/SVG/1.1/DTD/svg11.dtd">
<svg version="1.1" id="Layer_1" xmlns="http://www.w3.org/2000/svg" xmlns:xlink="http://www.w3.org/1999/xlink" x="0px" y="0px"
	 width="145.73px" height="145.731px" viewBox="0 0 145.73 145.731" enable-background="new 0 0 145.73 145.731"
	 xml:space="preserve">
<g>
	<circle fill="#F4F1DE" cx="72.865" cy="72.865" r="72.865"/>
	<g>
		<path fill="#3D405B" d="M140.125,72.865c0,37.145-30.115,67.26-67.26,67.26c-37.145,0-67.26-30.115-67.26-67.26
			c0-9.849,2.114-19.201,5.918-27.624C22.059,21.876,45.569,5.605,72.865,5.605c27.296,0,50.805,16.271,61.342,39.636
			C138.011,53.664,140.125,63.016,140.125,72.865z"/>
		<path fill="#FFFFFF" d="M97.752,48.302H47.978c-5.687,0-10.298,4.614-10.298,10.306v28.514c0,5.691,4.611,10.306,10.298,10.306
			h49.774c5.688,0,10.298-4.615,10.298-10.306V58.608C108.05,52.916,103.44,48.302,97.752,48.302z M65.562,82.107V62.19
			l19.086,9.957L65.562,82.107z"/>
	</g>
</g>
</svg>
