<?xml version="1.0" encoding="utf-8"?>
<!-- Generator: Adobe Illustrator 17.0.0, SVG Export Plug-In . SVG Version: 6.00 Build 0)  -->
<!DOCTYPE svg PUBLIC "-//W3C//DTD SVG 1.1//EN" "http://www.w3.org/Graphics/SVG/1.1/DTD/svg11.dtd">
<svg version="1.1" xmlns="http://www.w3.org/2000/svg" xmlns:xlink="http://www.w3.org/1999/xlink" x="0px" y="0px"
	 width="391.115px" height="115.302px" viewBox="0 0 391.115 115.302" enable-background="new 0 0 391.115 115.302"
	 xml:space="preserve">
<g id="BACKGROUND">
</g>
<g id="DESIGNED_BY_FREEPIK">
</g>
<g id="OBJECTS">
	<g>
		<circle fill="none" stroke="#0E0E0E" stroke-width="3" stroke-miterlimit="10" cx="196.391" cy="101.97" r="11.833"/>
		<circle fill="none" stroke="#0E0E0E" stroke-width="3" stroke-miterlimit="10" cx="196.391" cy="13.792" r="11.833"/>
		<polyline fill="none" stroke="#0E0E0E" stroke-width="3" stroke-miterlimit="10" points="231.192,8.409 196.759,42.842 
			162.326,8.409 		"/>
		<polyline fill="none" stroke="#0E0E0E" stroke-width="3" stroke-miterlimit="10" points="162.326,106.186 196.759,71.753 
			231.192,106.186 		"/>
		<polygon fill="none" stroke="#0E0E0E" stroke-width="3" stroke-miterlimit="10" points="268.723,32.018 257.094,56.365 
			268.723,80.714 195.358,56.365 		"/>
		<polygon fill="none" stroke="#0E0E0E" stroke-width="3" stroke-miterlimit="10" points="121.583,80.713 133.212,56.364 
			121.583,32.018 194.948,56.364 		"/>
		<g>
			
				<line fill="none" stroke="#0E0E0E" stroke-width="3" stroke-miterlimit="10" x1="176.971" y1="74.055" x2="123.835" y2="113.802"/>
			
				<line fill="none" stroke="#0E0E0E" stroke-width="3" stroke-miterlimit="10" x1="216.62" y1="74.055" x2="269.756" y2="113.802"/>
		</g>
		<g>
			<line fill="none" stroke="#0E0E0E" stroke-width="3" stroke-miterlimit="10" x1="176.971" y1="40.948" x2="123.835" y2="1.201"/>
			<line fill="none" stroke="#0E0E0E" stroke-width="3" stroke-miterlimit="10" x1="216.62" y1="40.948" x2="269.756" y2="1.201"/>
		</g>
		<g>
			<path fill="none" stroke="#0E0E0E" stroke-width="3" stroke-miterlimit="10" d="M51.237,56.365
				c0,14.267,11.552,25.835,25.811,25.863V30.503C62.789,30.531,51.237,42.1,51.237,56.365z"/>
			
				<rect x="90.928" y="45.383" fill="none" stroke="#0E0E0E" stroke-width="3" stroke-miterlimit="10" width="21.967" height="21.966"/>
			<polyline fill="none" stroke="#0E0E0E" stroke-width="3" stroke-miterlimit="10" points="33.604,87.845 2.121,56.364 
				33.604,24.885 			"/>
			<line fill="none" stroke="#0E0E0E" stroke-width="3" stroke-miterlimit="10" x1="77.048" y1="56.366" x2="133.212" y2="56.366"/>
			<line fill="none" stroke="#0E0E0E" stroke-width="3" stroke-miterlimit="10" x1="49.65" y1="56.366" x2="2.365" y2="56.366"/>
		</g>
		<g>
			<path fill="none" stroke="#0E0E0E" stroke-width="3" stroke-miterlimit="10" d="M339.879,56.365
				c0,14.267-11.552,25.835-25.811,25.863V30.503C328.328,30.531,339.879,42.1,339.879,56.365z"/>
			
				<rect x="278.222" y="45.383" fill="none" stroke="#0E0E0E" stroke-width="3" stroke-miterlimit="10" width="21.967" height="21.966"/>
			<polyline fill="none" stroke="#0E0E0E" stroke-width="3" stroke-miterlimit="10" points="357.514,87.845 388.993,56.364 
				357.514,24.885 			"/>
			
				<line fill="none" stroke="#0E0E0E" stroke-width="3" stroke-miterlimit="10" x1="314.069" y1="56.366" x2="257.905" y2="56.366"/>
			
				<line fill="none" stroke="#0E0E0E" stroke-width="3" stroke-miterlimit="10" x1="341.467" y1="56.366" x2="388.751" y2="56.366"/>
		</g>
	</g>
</g>
</svg>
