<?xml version="1.0" encoding="utf-8"?>
<!-- Generator: Adobe Illustrator 17.0.0, SVG Export Plug-In . SVG Version: 6.00 Build 0)  -->
<!DOCTYPE svg PUBLIC "-//W3C//DTD SVG 1.1//EN" "http://www.w3.org/Graphics/SVG/1.1/DTD/svg11.dtd">
<svg version="1.1" id="Layer_1" xmlns="http://www.w3.org/2000/svg" xmlns:xlink="http://www.w3.org/1999/xlink" x="0px" y="0px"
	 width="55.463px" height="282.785px" viewBox="0 0 55.463 282.785" enable-background="new 0 0 55.463 282.785"
	 xml:space="preserve">
<g>
	<path fill="none" stroke="#0E0E0E" stroke-width="3" stroke-miterlimit="10" d="M31.156,256.267
		c0-9.777,5.611-18.236,13.783-22.353c-3.379-1.701-7.193-2.666-11.234-2.666c-13.816,0-25.017,11.201-25.017,25.019
		c0,13.816,11.201,25.018,25.017,25.018c4.041,0,7.855-0.965,11.234-2.666C36.768,274.504,31.156,266.043,31.156,256.267z"/>
	<polyline fill="none" stroke="#0E0E0E" stroke-width="3" stroke-miterlimit="10" points="47.037,118.337 26.814,138.56 
		6.59,118.337 	"/>
	<polyline fill="none" stroke="#0E0E0E" stroke-width="3" stroke-miterlimit="10" points="47.037,108.224 26.814,128.449 
		6.59,108.224 	"/>
	<polyline fill="none" stroke="#0E0E0E" stroke-width="3" stroke-miterlimit="10" points="47.037,98.113 26.814,118.336 
		6.59,98.113 	"/>
	
		<rect x="18.021" y="71.636" transform="matrix(0.7071 0.7072 -0.7072 0.7071 65.7289 4.1855)" fill="none" stroke="#0E0E0E" stroke-width="3" stroke-miterlimit="10" width="19.582" height="19.582"/>
	
		<rect x="18.022" y="57.789" transform="matrix(0.7071 0.7071 -0.7071 0.7071 55.9326 0.1274)" fill="none" stroke="#0E0E0E" stroke-width="3" stroke-miterlimit="10" width="19.581" height="19.582"/>
	<line fill="none" stroke="#0E0E0E" stroke-width="3" stroke-miterlimit="10" x1="27.73" y1="42.332" x2="27.73" y2="231.248"/>
	<g>
		<line fill="none" stroke="#0E0E0E" stroke-width="3" stroke-miterlimit="10" x1="19.852" y1="217.666" x2="35.611" y2="217.666"/>
		<line fill="none" stroke="#0E0E0E" stroke-width="3" stroke-miterlimit="10" x1="11.971" y1="207.5" x2="43.49" y2="207.5"/>
		<line fill="none" stroke="#0E0E0E" stroke-width="3" stroke-miterlimit="10" x1="0" y1="197.333" x2="55.463" y2="197.333"/>
	</g>
	<circle fill="none" stroke="#0E0E0E" stroke-width="3" stroke-miterlimit="10" cx="27.813" cy="166.458" r="18.126"/>
	<line fill="none" stroke="#0E0E0E" stroke-width="3" stroke-miterlimit="10" x1="27.813" y1="37.666" x2="27.813" y2="27.666"/>
	<line fill="none" stroke="#0E0E0E" stroke-width="3" stroke-miterlimit="10" x1="27.813" y1="24" x2="27.813" y2="14"/>
	<line fill="none" stroke="#0E0E0E" stroke-width="3" stroke-miterlimit="10" x1="27.813" y1="10" x2="27.813" y2="0"/>
</g>
</svg>
