<?xml version="1.0" encoding="utf-8"?>
<!-- Generator: Adobe Illustrator 17.0.0, SVG Export Plug-In . SVG Version: 6.00 Build 0)  -->
<!DOCTYPE svg PUBLIC "-//W3C//DTD SVG 1.1//EN" "http://www.w3.org/Graphics/SVG/1.1/DTD/svg11.dtd">
<svg version="1.1" xmlns="http://www.w3.org/2000/svg" xmlns:xlink="http://www.w3.org/1999/xlink" x="0px" y="0px"
	 width="117.103px" height="393.943px" viewBox="0 0 117.103 393.943" enable-background="new 0 0 117.103 393.943"
	 xml:space="preserve">
<g id="BACKGROUND">
	<rect x="-1260.145" y="189.455" fill="#231F20" width="800" height="800"/>
</g>
<g id="DESIGNED_BY_FREEPIK">
	<g>
		<g>
			<g>
				<path fill="#F1F1F1" d="M-971.652,227.147v-0.258c-0.349,0.398-0.691,0.725-1.03,0.973c-0.339,0.252-0.706,0.441-1.102,0.57
					c-0.396,0.133-0.827,0.195-1.296,0.195c-0.621,0-1.195-0.131-1.725-0.393c-0.528-0.264-0.985-0.639-1.371-1.127
					c-0.388-0.486-0.68-1.059-0.879-1.719c-0.199-0.658-0.3-1.371-0.3-2.137c0-1.621,0.396-2.885,1.188-3.791
					c0.792-0.904,1.833-1.357,3.125-1.357c0.747,0,1.377,0.129,1.89,0.385c0.514,0.256,1.014,0.652,1.501,1.182v-3.826
					c0-0.533,0.106-0.934,0.318-1.207c0.212-0.271,0.514-0.408,0.907-0.408c0.393,0,0.694,0.125,0.906,0.375
					c0.213,0.252,0.318,0.619,0.318,1.107v11.436c0,0.494-0.113,0.863-0.342,1.111c-0.228,0.246-0.521,0.369-0.883,0.369
					c-0.354,0-0.648-0.127-0.879-0.383C-971.537,227.987-971.652,227.622-971.652,227.147z M-976.753,223.338
					c0,0.703,0.109,1.301,0.328,1.795c0.219,0.494,0.518,0.865,0.897,1.115c0.38,0.25,0.795,0.377,1.244,0.377
					c0.456,0,0.872-0.119,1.249-0.357c0.377-0.236,0.678-0.602,0.902-1.092c0.225-0.49,0.337-1.105,0.337-1.838
					c0-0.691-0.112-1.285-0.337-1.783c-0.225-0.496-0.528-0.875-0.912-1.139c-0.383-0.262-0.803-0.393-1.258-0.393
					c-0.475,0-0.899,0.135-1.273,0.402c-0.373,0.27-0.663,0.654-0.868,1.158C-976.65,222.088-976.753,222.672-976.753,223.338z"/>
				<path fill="#F1F1F1" d="M-960.219,223.995h-5.071c0.007,0.588,0.125,1.107,0.356,1.557c0.23,0.449,0.538,0.789,0.921,1.016
					c0.384,0.229,0.807,0.342,1.269,0.342c0.31,0,0.593-0.035,0.85-0.107c0.257-0.074,0.505-0.188,0.746-0.344
					c0.241-0.154,0.462-0.32,0.665-0.498c0.202-0.178,0.464-0.42,0.788-0.723c0.133-0.113,0.323-0.172,0.57-0.172
					c0.266,0,0.48,0.074,0.645,0.221c0.165,0.146,0.248,0.35,0.248,0.617c0,0.234-0.093,0.506-0.275,0.82
					c-0.185,0.314-0.462,0.615-0.831,0.902c-0.372,0.289-0.836,0.527-1.398,0.717c-0.56,0.191-1.204,0.285-1.933,0.285
					c-1.664,0-2.96-0.475-3.884-1.424c-0.925-0.949-1.387-2.238-1.387-3.865c0-0.768,0.113-1.479,0.342-2.133
					c0.228-0.656,0.56-1.217,0.997-1.686c0.437-0.469,0.975-0.828,1.615-1.078c0.639-0.25,1.349-0.375,2.127-0.375
					c1.013,0,1.882,0.213,2.607,0.641c0.726,0.428,1.269,0.98,1.63,1.656c0.359,0.678,0.541,1.369,0.541,2.07
					c0,0.654-0.187,1.076-0.56,1.27C-959.014,223.897-959.54,223.995-960.219,223.995z M-965.29,222.522h4.702
					c-0.063-0.887-0.304-1.551-0.718-1.99c-0.415-0.441-0.96-0.66-1.638-0.66c-0.647,0-1.177,0.223-1.591,0.668
					C-964.949,220.987-965.2,221.647-965.29,222.522z"/>
				<path fill="#F1F1F1" d="M-948.403,225.237c0,0.715-0.174,1.328-0.522,1.838c-0.348,0.51-0.862,0.896-1.544,1.16
					c-0.68,0.262-1.508,0.393-2.483,0.393c-0.931,0-1.729-0.143-2.393-0.428c-0.664-0.283-1.155-0.641-1.472-1.066
					c-0.316-0.43-0.475-0.857-0.475-1.289c0-0.285,0.1-0.527,0.304-0.73c0.202-0.201,0.459-0.303,0.769-0.303
					c0.271,0,0.481,0.066,0.626,0.199c0.146,0.133,0.286,0.32,0.418,0.559c0.266,0.465,0.585,0.807,0.955,1.037
					c0.37,0.227,0.875,0.342,1.516,0.342c0.518,0,0.944-0.117,1.277-0.348c0.332-0.232,0.498-0.496,0.498-0.793
					c0-0.457-0.172-0.787-0.517-0.996c-0.346-0.209-0.914-0.41-1.705-0.6c-0.893-0.221-1.619-0.455-2.18-0.699
					c-0.56-0.242-1.009-0.564-1.344-0.963c-0.336-0.398-0.504-0.891-0.504-1.473c0-0.518,0.155-1.01,0.466-1.473
					c0.31-0.461,0.768-0.83,1.373-1.105c0.604-0.275,1.333-0.414,2.188-0.414c0.671,0,1.274,0.07,1.809,0.211
					c0.536,0.137,0.983,0.326,1.34,0.561c0.358,0.232,0.63,0.492,0.816,0.777c0.187,0.285,0.28,0.563,0.28,0.836
					c0,0.297-0.1,0.541-0.299,0.732c-0.199,0.188-0.482,0.285-0.851,0.285c-0.266,0-0.492-0.076-0.679-0.23
					c-0.187-0.15-0.4-0.379-0.641-0.682c-0.196-0.254-0.427-0.457-0.693-0.609c-0.266-0.152-0.627-0.227-1.083-0.227
					c-0.469,0-0.857,0.098-1.168,0.299c-0.31,0.199-0.466,0.447-0.466,0.744c0,0.273,0.114,0.496,0.342,0.67
					c0.229,0.176,0.535,0.32,0.922,0.434c0.387,0.113,0.917,0.252,1.596,0.416c0.804,0.197,1.46,0.432,1.971,0.703
					c0.509,0.271,0.896,0.594,1.159,0.965C-948.534,224.34-948.403,224.762-948.403,225.237z"/>
				<path fill="#F1F1F1" d="M-945.755,216.879c-0.36,0-0.669-0.111-0.926-0.332c-0.256-0.221-0.385-0.535-0.385-0.941
					c0-0.367,0.132-0.668,0.395-0.906s0.568-0.357,0.916-0.357c0.336,0,0.634,0.107,0.893,0.324c0.26,0.215,0.391,0.527,0.391,0.939
					c0,0.4-0.128,0.711-0.381,0.936C-945.105,216.766-945.406,216.879-945.755,216.879z M-944.472,219.557v7.494
					c0,0.52-0.124,0.912-0.371,1.178c-0.247,0.266-0.56,0.398-0.94,0.398c-0.38,0-0.688-0.135-0.926-0.408
					c-0.238-0.271-0.356-0.662-0.356-1.168v-7.418c0-0.512,0.118-0.898,0.356-1.158c0.237-0.26,0.546-0.391,0.926-0.391
					c0.381,0,0.693,0.131,0.94,0.391C-944.596,218.735-944.472,219.096-944.472,219.557z"/>
				<path fill="#F1F1F1" d="M-933.113,219.985v7.531c0,0.861-0.093,1.604-0.276,2.225c-0.183,0.619-0.478,1.133-0.883,1.537
					c-0.405,0.404-0.936,0.707-1.591,0.902c-0.655,0.197-1.471,0.295-2.446,0.295c-0.893,0-1.69-0.125-2.394-0.375
					c-0.702-0.252-1.243-0.574-1.624-0.969c-0.379-0.396-0.57-0.803-0.57-1.221c0-0.316,0.108-0.576,0.324-0.773
					c0.215-0.201,0.475-0.301,0.778-0.301c0.38,0,0.712,0.168,0.997,0.504c0.139,0.17,0.283,0.344,0.432,0.518
					c0.149,0.176,0.315,0.324,0.494,0.447c0.181,0.123,0.397,0.215,0.65,0.275c0.254,0.059,0.546,0.09,0.874,0.09
					c0.672,0,1.192-0.094,1.563-0.281c0.37-0.186,0.63-0.447,0.778-0.783c0.149-0.334,0.236-0.693,0.262-1.078
					c0.025-0.383,0.044-0.998,0.057-1.848c-0.399,0.559-0.859,0.982-1.383,1.273c-0.521,0.291-1.145,0.438-1.865,0.438
					c-0.868,0-1.626-0.223-2.275-0.666c-0.648-0.443-1.147-1.063-1.495-1.861c-0.349-0.799-0.523-1.719-0.523-2.764
					c0-0.777,0.105-1.482,0.317-2.107c0.213-0.629,0.516-1.156,0.907-1.588c0.393-0.43,0.846-0.754,1.358-0.973
					c0.513-0.219,1.076-0.328,1.69-0.328c0.734,0,1.371,0.143,1.909,0.422c0.538,0.283,1.039,0.725,1.501,1.326V219.5
					c0-0.449,0.11-0.797,0.332-1.045c0.222-0.246,0.507-0.371,0.855-0.371c0.5,0,0.832,0.164,0.996,0.49
					C-933.196,218.901-933.113,219.372-933.113,219.985z M-940.626,223.272c0,1.051,0.229,1.846,0.688,2.383
					c0.459,0.539,1.054,0.809,1.781,0.809c0.431,0,0.837-0.117,1.22-0.348c0.384-0.23,0.695-0.58,0.937-1.045
					c0.24-0.465,0.361-1.029,0.361-1.695c0-1.057-0.232-1.881-0.698-2.469c-0.466-0.588-1.078-0.883-1.839-0.883
					c-0.741,0-1.334,0.281-1.78,0.846C-940.403,221.432-940.626,222.233-940.626,223.272z"/>
				<path fill="#F1F1F1" d="M-928.992,219.52v0.313c0.455-0.602,0.954-1.043,1.495-1.324c0.542-0.281,1.163-0.424,1.866-0.424
					c0.685,0,1.295,0.15,1.834,0.447c0.537,0.299,0.94,0.719,1.205,1.262c0.172,0.318,0.282,0.66,0.333,1.027
					c0.051,0.367,0.077,0.836,0.077,1.406v4.824c0,0.52-0.119,0.912-0.357,1.178c-0.237,0.266-0.546,0.398-0.926,0.398
					c-0.387,0-0.699-0.135-0.94-0.408c-0.241-0.271-0.36-0.662-0.36-1.168v-4.322c0-0.854-0.119-1.508-0.356-1.961
					c-0.238-0.451-0.711-0.68-1.421-0.68c-0.461,0-0.883,0.139-1.263,0.414c-0.38,0.275-0.658,0.654-0.836,1.135
					c-0.126,0.387-0.189,1.107-0.189,2.166v3.248c0,0.525-0.123,0.92-0.365,1.184c-0.244,0.262-0.559,0.393-0.945,0.393
					c-0.374,0-0.681-0.135-0.922-0.408c-0.24-0.271-0.36-0.662-0.36-1.168v-7.494c0-0.494,0.107-0.863,0.322-1.107
					c0.216-0.242,0.51-0.365,0.883-0.365c0.228,0,0.435,0.055,0.619,0.162c0.183,0.109,0.33,0.27,0.441,0.484
					C-929.048,218.946-928.992,219.209-928.992,219.52z"/>
				<path fill="#F1F1F1" d="M-913.218,223.995h-5.071c0.007,0.588,0.124,1.107,0.356,1.557c0.23,0.449,0.537,0.789,0.921,1.016
					c0.382,0.229,0.806,0.342,1.268,0.342c0.311,0,0.594-0.035,0.851-0.107c0.256-0.074,0.504-0.188,0.746-0.344
					c0.239-0.154,0.461-0.32,0.665-0.498c0.201-0.178,0.464-0.42,0.787-0.723c0.133-0.113,0.323-0.172,0.57-0.172
					c0.266,0,0.482,0.074,0.646,0.221c0.165,0.146,0.247,0.35,0.247,0.617c0,0.234-0.092,0.506-0.275,0.82
					c-0.185,0.314-0.461,0.615-0.832,0.902c-0.37,0.289-0.835,0.527-1.395,0.717c-0.561,0.191-1.205,0.285-1.933,0.285
					c-1.665,0-2.96-0.475-3.886-1.424c-0.923-0.949-1.386-2.238-1.386-3.865c0-0.768,0.114-1.479,0.342-2.133
					c0.227-0.656,0.56-1.217,0.998-1.686c0.436-0.469,0.975-0.828,1.614-1.078c0.639-0.25,1.349-0.375,2.128-0.375
					c1.013,0,1.881,0.213,2.606,0.641c0.726,0.428,1.268,0.98,1.63,1.656c0.36,0.678,0.542,1.369,0.542,2.07
					c0,0.654-0.187,1.076-0.561,1.27C-912.014,223.897-912.54,223.995-913.218,223.995z M-918.289,222.522h4.701
					c-0.063-0.887-0.303-1.551-0.717-1.99c-0.415-0.441-0.961-0.66-1.639-0.66c-0.647,0-1.177,0.223-1.592,0.668
					C-917.95,220.987-918.2,221.647-918.289,222.522z"/>
				<path fill="#F1F1F1" d="M-902.648,227.147v-0.258c-0.348,0.398-0.691,0.725-1.03,0.973c-0.339,0.252-0.705,0.441-1.102,0.57
					c-0.395,0.133-0.827,0.195-1.296,0.195c-0.621,0-1.195-0.131-1.724-0.393c-0.529-0.264-0.986-0.639-1.373-1.127
					c-0.387-0.486-0.679-1.059-0.878-1.719c-0.2-0.658-0.3-1.371-0.3-2.137c0-1.621,0.396-2.885,1.188-3.791
					c0.791-0.904,1.833-1.357,3.125-1.357c0.747,0,1.377,0.129,1.89,0.385c0.513,0.256,1.014,0.652,1.5,1.182v-3.826
					c0-0.533,0.106-0.934,0.319-1.207c0.211-0.271,0.515-0.408,0.907-0.408c0.392,0,0.694,0.125,0.906,0.375
					c0.212,0.252,0.318,0.619,0.318,1.107v11.436c0,0.494-0.113,0.863-0.342,1.111c-0.228,0.246-0.521,0.369-0.883,0.369
					c-0.354,0-0.648-0.127-0.879-0.383C-902.532,227.987-902.648,227.622-902.648,227.147z M-907.748,223.338
					c0,0.703,0.108,1.301,0.327,1.795c0.219,0.494,0.518,0.865,0.898,1.115c0.38,0.25,0.794,0.377,1.243,0.377
					c0.457,0,0.873-0.119,1.249-0.357c0.377-0.236,0.679-0.602,0.902-1.092c0.226-0.49,0.338-1.105,0.338-1.838
					c0-0.691-0.112-1.285-0.338-1.783c-0.224-0.496-0.528-0.875-0.911-1.139c-0.384-0.262-0.803-0.393-1.259-0.393
					c-0.475,0-0.899,0.135-1.273,0.402c-0.373,0.27-0.663,0.654-0.869,1.158C-907.646,222.088-907.748,222.672-907.748,223.338z"/>
				<path fill="#F1F1F1" d="M-892.05,215.711v3.959c0.487-0.506,0.984-0.895,1.491-1.162c0.506-0.27,1.134-0.404,1.881-0.404
					c0.861,0,1.615,0.205,2.266,0.611c0.647,0.41,1.151,1.002,1.51,1.777c0.357,0.775,0.537,1.695,0.537,2.76
					c0,0.785-0.101,1.504-0.3,2.16c-0.199,0.656-0.489,1.225-0.869,1.705c-0.38,0.48-0.841,0.854-1.382,1.117
					c-0.542,0.262-1.139,0.393-1.79,0.393c-0.399,0-0.775-0.047-1.126-0.143c-0.352-0.094-0.651-0.219-0.897-0.375
					c-0.246-0.154-0.457-0.314-0.632-0.479c-0.174-0.164-0.404-0.412-0.688-0.742v0.258c0,0.486-0.117,0.855-0.352,1.107
					c-0.233,0.25-0.531,0.373-0.893,0.373c-0.367,0-0.66-0.123-0.879-0.373c-0.219-0.252-0.327-0.621-0.327-1.107v-11.322
					c0-0.525,0.105-0.924,0.317-1.191c0.212-0.27,0.509-0.404,0.889-0.404c0.399,0,0.706,0.129,0.921,0.385
					C-892.158,214.872-892.05,215.235-892.05,215.711z M-891.927,223.415c0,1.031,0.236,1.824,0.708,2.377
					c0.472,0.555,1.091,0.834,1.856,0.834c0.652,0,1.215-0.283,1.686-0.852c0.472-0.566,0.708-1.379,0.708-2.436
					c0-0.684-0.098-1.273-0.294-1.768c-0.197-0.494-0.475-0.875-0.836-1.145c-0.361-0.268-0.782-0.402-1.264-0.402
					c-0.493,0-0.935,0.135-1.32,0.402c-0.386,0.27-0.689,0.658-0.912,1.168C-891.815,222.104-891.927,222.711-891.927,223.415z"/>
				<path fill="#F1F1F1" d="M-881.004,228.952l0.237-0.58l-3.191-8.035c-0.196-0.461-0.295-0.799-0.295-1.008
					c0-0.221,0.058-0.426,0.171-0.615c0.114-0.191,0.271-0.344,0.47-0.457c0.2-0.115,0.407-0.172,0.623-0.172
					c0.373,0,0.654,0.119,0.846,0.357c0.19,0.236,0.357,0.576,0.503,1.02l2.194,6.383l2.08-5.936
					c0.164-0.48,0.313-0.857,0.446-1.131c0.133-0.271,0.273-0.455,0.422-0.549c0.148-0.096,0.359-0.145,0.633-0.145
					c0.197,0,0.385,0.053,0.565,0.158c0.181,0.104,0.32,0.244,0.418,0.422c0.098,0.178,0.148,0.363,0.148,0.56
					c-0.027,0.119-0.066,0.291-0.125,0.514c-0.057,0.221-0.126,0.447-0.208,0.674l-3.382,8.852
					c-0.292,0.779-0.576,1.389-0.856,1.832c-0.278,0.443-0.646,0.785-1.106,1.021c-0.459,0.238-1.078,0.357-1.856,0.357
					c-0.76,0-1.33-0.082-1.709-0.246c-0.381-0.166-0.57-0.467-0.57-0.904c0-0.297,0.09-0.527,0.271-0.688
					c0.18-0.162,0.447-0.244,0.801-0.244c0.14,0,0.276,0.02,0.409,0.059c0.165,0.037,0.307,0.057,0.427,0.057
					c0.298,0,0.532-0.043,0.704-0.133c0.17-0.088,0.323-0.242,0.46-0.461C-881.339,229.698-881.182,229.375-881.004,228.952z"/>
			</g>
			<g>
				<path fill="#F1F1F1" d="M-843.441,218.309h0.619v-0.777c0-0.814,0.1-1.457,0.307-1.938c0.203-0.479,0.555-0.826,1.047-1.045
					c0.49-0.217,1.162-0.326,2.016-0.326c1.52,0,2.273,0.367,2.273,1.113c0,0.238-0.08,0.445-0.24,0.615
					c-0.154,0.17-0.344,0.256-0.559,0.256c-0.1,0-0.277-0.018-0.527-0.059c-0.236-0.033-0.451-0.057-0.623-0.057
					c-0.467,0-0.766,0.141-0.904,0.416c-0.127,0.275-0.195,0.668-0.195,1.184v0.617h0.633c0.99,0,1.48,0.297,1.48,0.896
					c0,0.418-0.127,0.689-0.393,0.805c-0.262,0.113-0.623,0.17-1.088,0.17h-0.633v6.871c0,0.512-0.121,0.9-0.369,1.168
					c-0.242,0.273-0.555,0.406-0.943,0.406c-0.367,0-0.67-0.133-0.918-0.406c-0.244-0.268-0.363-0.656-0.363-1.168v-6.871h-0.715
					c-0.389,0-0.682-0.084-0.893-0.262c-0.209-0.17-0.314-0.398-0.314-0.678C-844.744,218.618-844.311,218.309-843.441,218.309"/>
				<path fill="#F1F1F1" d="M-834.951,224.883v2.168c0,0.523-0.133,0.92-0.375,1.18c-0.246,0.266-0.559,0.395-0.938,0.395
					c-0.381,0-0.688-0.131-0.926-0.4c-0.236-0.264-0.361-0.656-0.361-1.174v-7.223c0-1.166,0.42-1.748,1.262-1.748
					c0.434,0,0.742,0.135,0.934,0.408c0.189,0.273,0.295,0.674,0.316,1.207c0.309-0.533,0.625-0.934,0.949-1.207
					c0.332-0.273,0.762-0.408,1.309-0.408c0.549,0,1.072,0.135,1.586,0.408c0.516,0.273,0.771,0.637,0.771,1.084
					c0,0.314-0.111,0.58-0.326,0.781c-0.221,0.209-0.455,0.313-0.707,0.313c-0.1,0-0.33-0.063-0.691-0.18
					c-0.365-0.113-0.69-0.174-0.963-0.174c-0.381,0-0.693,0.104-0.932,0.299c-0.242,0.205-0.432,0.496-0.565,0.887
					c-0.129,0.394-0.219,0.865-0.273,1.404C-834.93,223.444-834.951,224.106-834.951,224.883"/>
				<path fill="#F1F1F1" d="M-823.031,223.991h-5.074c0.01,0.588,0.125,1.111,0.355,1.559c0.234,0.447,0.539,0.787,0.924,1.018
					c0.385,0.227,0.805,0.34,1.269,0.34c0.311,0,0.592-0.033,0.85-0.111c0.254-0.07,0.504-0.186,0.744-0.342
					c0.242-0.152,0.461-0.318,0.664-0.5c0.203-0.174,0.467-0.416,0.791-0.719c0.135-0.113,0.324-0.174,0.568-0.174
					c0.268,0,0.48,0.074,0.648,0.223c0.166,0.146,0.244,0.35,0.244,0.617c0,0.234-0.09,0.508-0.268,0.818
					c-0.188,0.318-0.463,0.617-0.836,0.906c-0.375,0.285-0.84,0.527-1.398,0.715c-0.559,0.189-1.205,0.285-1.932,0.285
					c-1.67,0-2.963-0.473-3.887-1.422c-0.924-0.951-1.391-2.242-1.391-3.867c0-0.768,0.117-1.479,0.348-2.135
					c0.225-0.658,0.557-1.217,0.998-1.688c0.436-0.471,0.971-0.828,1.613-1.078c0.637-0.25,1.346-0.375,2.127-0.375
					c1.012,0,1.881,0.215,2.607,0.646c0.723,0.422,1.273,0.977,1.629,1.654c0.361,0.68,0.541,1.367,0.541,2.074
					c0,0.648-0.188,1.07-0.56,1.266C-821.828,223.895-822.354,223.991-823.031,223.991 M-828.105,222.516h4.701
					c-0.063-0.885-0.297-1.549-0.713-1.986c-0.418-0.441-0.959-0.66-1.641-0.66c-0.646,0-1.178,0.221-1.592,0.67
					C-827.764,220.985-828.018,221.643-828.105,222.516"/>
				<path fill="#F1F1F1" d="M-812.244,223.991h-5.072c0.006,0.588,0.125,1.111,0.353,1.559c0.233,0.447,0.539,0.787,0.922,1.018
					c0.383,0.227,0.805,0.34,1.271,0.34c0.307,0,0.592-0.033,0.844-0.111c0.26-0.07,0.506-0.186,0.75-0.342
					c0.242-0.152,0.461-0.318,0.664-0.5c0.199-0.174,0.465-0.416,0.789-0.719c0.135-0.113,0.326-0.174,0.568-0.174
					c0.268,0,0.482,0.074,0.65,0.223c0.164,0.146,0.24,0.35,0.24,0.617c0,0.234-0.088,0.508-0.273,0.818
					c-0.178,0.318-0.455,0.617-0.83,0.906c-0.371,0.285-0.84,0.527-1.396,0.715c-0.557,0.189-1.207,0.285-1.934,0.285
					c-1.668,0-2.959-0.473-3.887-1.422c-0.924-0.951-1.389-2.242-1.389-3.867c0-0.768,0.115-1.479,0.348-2.135
					c0.227-0.658,0.559-1.217,0.996-1.688c0.436-0.471,0.973-0.828,1.613-1.078c0.639-0.25,1.352-0.375,2.129-0.375
					c1.01,0,1.879,0.215,2.613,0.646c0.721,0.422,1.266,0.977,1.621,1.654c0.359,0.68,0.545,1.367,0.545,2.074
					c0,0.648-0.191,1.07-0.56,1.266C-811.043,223.895-811.568,223.991-812.244,223.991 M-817.316,222.516h4.701
					c-0.065-0.885-0.305-1.549-0.715-1.986c-0.422-0.441-0.963-0.66-1.643-0.66c-0.647,0-1.176,0.221-1.594,0.67
					C-816.979,220.985-817.232,221.643-817.316,222.516"/>
				<path fill="#F1F1F1" d="M-806.564,219.54v0.31c0.486-0.601,0.994-1.043,1.525-1.324c0.518-0.285,1.117-0.428,1.781-0.428
					c0.795,0,1.535,0.209,2.207,0.617c0.672,0.414,1.199,1.016,1.59,1.807c0.389,0.795,0.586,1.73,0.586,2.814
					c0,0.795-0.113,1.531-0.336,2.201c-0.225,0.668-0.537,1.227-0.93,1.68c-0.393,0.449-0.855,0.801-1.389,1.045
					c-0.543,0.242-1.111,0.363-1.729,0.363c-0.738,0-1.363-0.148-1.865-0.447c-0.502-0.291-0.982-0.732-1.441-1.305v3.892
					c0,1.135-0.416,1.709-1.244,1.709c-0.49,0-0.809-0.146-0.971-0.439c-0.152-0.299-0.234-0.723-0.234-1.291v-11.193
					c0-0.494,0.107-0.859,0.32-1.107c0.215-0.238,0.512-0.363,0.885-0.363c0.369,0,0.666,0.125,0.896,0.373
					C-806.678,218.707-806.564,219.065-806.564,219.54 M-801.48,223.307c0-0.686-0.106-1.273-0.315-1.764
					c-0.209-0.492-0.498-0.867-0.865-1.127c-0.367-0.264-0.783-0.396-1.232-0.396c-0.715,0-1.318,0.283-1.809,0.844
					c-0.492,0.566-0.74,1.395-0.74,2.492c0,1.027,0.244,1.834,0.736,2.406c0.486,0.574,1.086,0.859,1.813,0.859
					c0.428,0,0.83-0.127,1.197-0.373c0.371-0.252,0.664-0.627,0.883-1.127C-801.592,224.62-801.48,224.014-801.48,223.307"/>
				<path fill="#F1F1F1" d="M-796.264,216.874c-0.363,0-0.67-0.115-0.924-0.336c-0.26-0.223-0.387-0.531-0.387-0.935
					c0-0.369,0.131-0.67,0.396-0.91c0.262-0.234,0.566-0.355,0.914-0.355c0.34,0,0.635,0.105,0.893,0.318
					c0.26,0.219,0.391,0.535,0.391,0.947c0,0.398-0.127,0.711-0.377,0.935C-795.611,216.758-795.912,216.874-796.264,216.874
					 M-794.98,219.551v7.502c0,0.516-0.123,0.908-0.369,1.172c-0.25,0.27-0.56,0.4-0.941,0.4c-0.381,0-0.685-0.133-0.928-0.406
					c-0.234-0.275-0.355-0.664-0.355-1.166v-7.428c0-0.51,0.121-0.895,0.355-1.154c0.242-0.264,0.547-0.391,0.928-0.391
					c0.381,0,0.691,0.127,0.941,0.391C-795.104,218.731-794.98,219.094-794.98,219.551"/>
				<path fill="#F1F1F1" d="M-786.621,227.442l-2.283-3.766l-1.408,1.328v2.066c0,0.498-0.133,0.881-0.397,1.148
					c-0.258,0.273-0.566,0.406-0.906,0.406c-0.398,0-0.715-0.131-0.941-0.4c-0.227-0.264-0.344-0.656-0.344-1.174v-11.063
					c0-0.574,0.115-1.012,0.332-1.314c0.223-0.305,0.545-0.451,0.953-0.451c0.398,0,0.713,0.137,0.949,0.41
					c0.234,0.271,0.354,0.674,0.354,1.203v6.293l2.916-3.063c0.361-0.377,0.633-0.641,0.826-0.779c0.19-0.139,0.42-0.207,0.69-0.207
					c0.326,0,0.594,0.104,0.816,0.309c0.211,0.205,0.32,0.465,0.32,0.773c0,0.379-0.353,0.889-1.055,1.521l-1.377,1.262l2.658,4.184
					c0.193,0.313,0.34,0.543,0.424,0.705c0.084,0.16,0.131,0.32,0.131,0.463c0,0.412-0.115,0.734-0.342,0.975
					c-0.225,0.236-0.523,0.354-0.885,0.354c-0.316,0-0.565-0.08-0.734-0.256C-786.094,228.198-786.33,227.887-786.621,227.442"/>
				<path fill="#F1F1F1" d="M-780.984,228.625c-0.393,0-0.729-0.125-1.014-0.381c-0.285-0.248-0.43-0.605-0.43-1.064
					c0-0.385,0.139-0.719,0.41-0.994c0.275-0.279,0.607-0.42,1.008-0.42c0.398,0,0.736,0.141,1.023,0.412
					c0.279,0.275,0.422,0.613,0.422,1.002c0,0.453-0.143,0.809-0.422,1.061C-780.273,228.5-780.605,228.625-780.984,228.625"/>
				<path fill="#F1F1F1" d="M-768.086,225.416c0,0.32-0.098,0.668-0.291,1.033c-0.191,0.371-0.488,0.719-0.887,1.051
					c-0.395,0.332-0.891,0.602-1.494,0.803c-0.602,0.203-1.281,0.307-2.031,0.307c-1.606,0-2.857-0.469-3.758-1.4
					c-0.895-0.936-1.346-2.189-1.346-3.76c0-1.068,0.205-2.006,0.619-2.824c0.408-0.814,1.004-1.447,1.781-1.895
					c0.779-0.447,1.717-0.67,2.795-0.67c0.674,0,1.287,0.098,1.852,0.295c0.561,0.195,1.033,0.451,1.426,0.76
					c0.387,0.314,0.686,0.643,0.889,0.992c0.207,0.352,0.309,0.68,0.309,0.986c0,0.309-0.113,0.572-0.344,0.787
					c-0.234,0.215-0.516,0.324-0.838,0.324c-0.219,0-0.398-0.057-0.541-0.166c-0.145-0.111-0.305-0.289-0.479-0.541
					c-0.318-0.479-0.646-0.842-0.996-1.08c-0.344-0.242-0.781-0.361-1.314-0.361c-0.762,0-1.383,0.297-1.854,0.896
					c-0.467,0.596-0.703,1.42-0.703,2.455c0,0.488,0.063,0.939,0.184,1.348c0.117,0.406,0.291,0.756,0.519,1.043
					c0.231,0.287,0.504,0.506,0.826,0.654c0.324,0.154,0.682,0.227,1.065,0.227c0.521,0,0.967-0.121,1.336-0.361
					c0.377-0.24,0.703-0.607,0.986-1.102c0.158-0.291,0.328-0.518,0.51-0.684c0.182-0.164,0.408-0.25,0.676-0.25
					c0.316,0,0.58,0.123,0.785,0.363C-768.193,224.887-768.086,225.145-768.086,225.416"/>
				<path fill="#F1F1F1" d="M-756.897,223.356c0,0.77-0.121,1.484-0.355,2.139c-0.246,0.652-0.592,1.213-1.049,1.678
					c-0.455,0.469-1.002,0.828-1.633,1.08c-0.639,0.248-1.35,0.375-2.139,0.375c-0.785,0-1.492-0.127-2.121-0.383
					c-0.623-0.248-1.17-0.613-1.625-1.082c-0.461-0.476-0.809-1.033-1.053-1.676c-0.229-0.645-0.35-1.355-0.35-2.131
					c0-0.787,0.123-1.506,0.357-2.158c0.242-0.654,0.59-1.213,1.039-1.674c0.451-0.461,0.994-0.816,1.631-1.07
					c0.644-0.248,1.35-0.373,2.121-0.373c0.785,0,1.498,0.125,2.139,0.381c0.639,0.252,1.184,0.615,1.645,1.08
					c0.457,0.475,0.803,1.029,1.039,1.672C-757.016,221.864-756.897,222.573-756.897,223.356 M-759.5,223.356
					c0-1.059-0.234-1.881-0.697-2.469c-0.463-0.596-1.09-0.889-1.875-0.889c-0.508,0-0.955,0.133-1.342,0.394
					c-0.387,0.262-0.682,0.648-0.891,1.164c-0.209,0.514-0.314,1.113-0.314,1.799c0,0.678,0.102,1.268,0.309,1.773
					c0.209,0.51,0.502,0.896,0.887,1.166c0.385,0.266,0.834,0.404,1.352,0.404c0.785,0,1.412-0.297,1.875-0.893
					C-759.734,225.217-759.5,224.397-759.5,223.356"/>
				<path fill="#F1F1F1" d="M-747.004,223.545v3.447c0,0.547-0.121,0.951-0.369,1.227c-0.25,0.273-0.572,0.408-0.978,0.408
					c-0.393,0-0.713-0.135-0.951-0.408c-0.246-0.275-0.371-0.68-0.371-1.227v-4.131c0-0.654-0.021-1.162-0.064-1.525
					c-0.045-0.354-0.168-0.654-0.361-0.883c-0.197-0.234-0.51-0.351-0.932-0.351c-0.85,0-1.406,0.291-1.676,0.881
					c-0.268,0.576-0.406,1.414-0.406,2.508v3.502c0,0.537-0.123,0.945-0.361,1.223c-0.25,0.273-0.568,0.412-0.965,0.412
					c-0.396,0-0.717-0.139-0.967-0.412c-0.252-0.277-0.377-0.686-0.377-1.223v-7.42c0-0.488,0.111-0.859,0.336-1.111
					c0.228-0.256,0.525-0.381,0.889-0.381c0.357,0,0.652,0.123,0.893,0.356c0.236,0.238,0.354,0.566,0.354,0.984v0.244
					c0.453-0.535,0.936-0.932,1.445-1.18c0.516-0.26,1.082-0.387,1.713-0.387c0.65,0,1.211,0.131,1.678,0.391
					c0.469,0.26,0.853,0.654,1.16,1.176c0.439-0.527,0.908-0.922,1.41-1.18c0.5-0.258,1.053-0.387,1.662-0.387
					c0.705,0,1.32,0.143,1.834,0.42c0.51,0.277,0.893,0.68,1.146,1.195c0.221,0.473,0.33,1.209,0.33,2.217v5.063
					c0,0.547-0.121,0.951-0.367,1.227c-0.246,0.273-0.574,0.408-0.979,0.408c-0.395,0-0.715-0.139-0.965-0.412
					c-0.25-0.277-0.377-0.686-0.377-1.223v-4.361c0-0.559-0.023-1.004-0.068-1.338c-0.047-0.338-0.178-0.621-0.383-0.848
					c-0.213-0.227-0.531-0.344-0.953-0.344c-0.342,0-0.666,0.107-0.975,0.309c-0.307,0.197-0.547,0.477-0.721,0.813
					C-746.906,221.661-747.004,222.436-747.004,223.545"/>
			</g>
			<g>
				<path fill="#F1F1F1" d="M-867.709,222.727c-0.002-0.004-0.002-0.01-0.002-0.018
					C-867.711,222.717-867.711,222.723-867.709,222.727z"/>
				<path fill="#F1F1F1" d="M-867.578,223.557c0.002,0,0.002,0,0.002,0c-0.049-0.236-0.088-0.471-0.117-0.703
					C-867.664,223.088-867.625,223.323-867.578,223.557z"/>
				<path fill="#F1F1F1" d="M-866.72,225.963c-0.006-0.01-0.011-0.021-0.017-0.033C-866.73,225.942-866.726,225.954-866.72,225.963z
					"/>
				<path fill="#F1F1F1" d="M-866.802,225.803c-0.023-0.045-0.044-0.09-0.066-0.135
					C-866.846,225.715-866.824,225.758-866.802,225.803z"/>
				<path fill="#F1F1F1" d="M-867.337,224.483c0.127,0.4,0.28,0.789,0.457,1.158c-0.181-0.377-0.33-0.766-0.454-1.158
					C-867.334,224.483-867.336,224.483-867.337,224.483z"/>
				<path fill="#F1F1F1" d="M-857.672,212.791c0.502,0,0.871,0.039,1.295,0.111l0.121-0.764c0,0-1.172-0.359-2.711-0.234
					l-0.121-0.414c0.479-0.102,0.838-0.527,0.838-1.035c0-0.582-0.475-1.053-1.057-1.053c-0.584,0-1.057,0.471-1.057,1.053
					c0,0.508,0.359,0.934,0.836,1.035l0.135,0.463c-1.635,0.225-2.936,0.861-2.936,0.861l0.231,0.705
					c0.988-0.328,1.846-0.529,2.624-0.613C-858.712,212.827-858.139,212.791-857.672,212.791z"/>
				<path fill="#F1F1F1" d="M-866.739,216.649l0.006-0.008c0.038-0.049,0.075-0.096,0.113-0.142l-0.313-0.225l-0.487-0.357
					c-0.027,0.039-0.795,0.744-1.401,2.049c-0.025-0.041-0.056-0.082-0.09-0.119c-0.182-0.199-0.435-0.301-0.758-0.295
					c-0.004,0-0.01,0-0.016,0c-0.199,0-0.336-0.066-0.426-0.146c0.089-0.113,0.143-0.256,0.143-0.414c0-0.367-0.3-0.668-0.67-0.668
					c-0.368,0-0.668,0.301-0.668,0.668c0,0.371,0.3,0.67,0.668,0.67c0.059,0,0.113-0.01,0.168-0.021
					c0.164,0.184,0.425,0.342,0.807,0.334c0.197-0.002,0.342,0.049,0.438,0.156c0.111,0.121,0.148,0.295,0.16,0.428
					c-0.001,0.002-0.001,0.004-0.003,0.004c-0.436,1.189-0.311,2.67-0.311,2.67l1.058,0.043c0.022-0.539,0.099-1.482,0.372-2.23
					C-867.426,217.594-866.766,216.688-866.739,216.649z"/>
				<path fill="#F1F1F1" d="M-848.473,213.674c-0.367,0-0.668,0.299-0.668,0.67c0,0.057,0.008,0.111,0.023,0.164
					c-0.183,0.166-0.344,0.428-0.338,0.811c0.004,0.197-0.047,0.34-0.154,0.438c-0.084,0.074-0.191,0.115-0.295,0.141
					c-0.787-1.104-1.756-1.775-1.756-1.775l-0.76,0.813c0.574,0.521,1.16,1.176,1.729,1.99c0.395,0.564,0.799,1.291,1.137,2.016
					l1.023-0.486c0,0-0.467-1.156-1.125-2.191c0.113-0.041,0.229-0.104,0.33-0.193c0.201-0.18,0.299-0.436,0.293-0.758
					c-0.002-0.207,0.066-0.348,0.148-0.441c0.115,0.088,0.258,0.143,0.412,0.143c0.371,0,0.67-0.299,0.67-0.668
					C-847.803,213.973-848.102,213.674-848.473,213.674z"/>
				<path fill="#F1F1F1" d="M-851.129,222.877c-1.41,0.686-3.729,1.594-6.781,2.02c-1.199,0.166-2.359,0.227-3.429,0.227
					c-1.391,0-2.62-0.104-3.563-0.223c-1.076-0.135-1.917-0.301-2.433-0.418c0.124,0.393,0.274,0.781,0.454,1.158
					c0.003,0.01,0.008,0.021,0.013,0.027c0.022,0.045,0.043,0.09,0.066,0.135c0.021,0.043,0.043,0.086,0.065,0.127
					c0.006,0.012,0.011,0.023,0.017,0.033c0.303,0.57,0.667,1.094,1.081,1.549c1.439,1.574,2.906,1.824,2.92,1.826l0.023,0.002
					l0.021,0.008c0.014,0.006,1.315,0.426,3.291,0.426c1.945,0,3.855-0.393,5.674-1.168c1.348-0.689,2.623-1.736,3.254-2.67
					c0.488-0.723,0.842-1.492,1.051-2.293c0.111-0.426,0.199-1.107,0.146-1.826C-849.654,222.084-850.281,222.463-851.129,222.877z"
					/>
				<path fill="#F1F1F1" d="M-866.287,216.983c-0.041,0.061-0.652,0.926-1.135,2.254c-0.361,0.994-0.346,2.443-0.346,2.459v0.004
					c0,0.34,0.019,0.676,0.057,1.01c0,0.008,0,0.014,0.002,0.018c0.004,0.043,0.012,0.084,0.016,0.127
					c0.029,0.232,0.068,0.467,0.118,0.703c0.7,0.178,4.878,1.152,9.548,0.502c2.928-0.408,5.15-1.273,6.5-1.928
					c1.121-0.543,1.842-1.035,2.119-1.238c-0.277-1.027-1.041-2.641-1.742-3.646c-2.006-2.865-4.168-3.6-5.277-3.783
					c-0.424-0.068-0.764-0.109-1.244-0.109c-0.447,0-1.002,0.037-1.742,0.115c-0.744,0.076-1.572,0.271-2.533,0.596
					c-1.348,0.451-2.566,1.158-3.526,2.047l-0.032,0.031C-865.648,216.274-865.945,216.549-866.287,216.983z M-854.018,216.317
					c0.961,0,1.744,0.781,1.744,1.742c0,0.963-0.783,1.744-1.744,1.744c-0.961,0-1.742-0.781-1.742-1.744
					C-855.76,217.098-854.979,216.317-854.018,216.317z M-862.259,216.247c1.557,0,2.817,1.262,2.817,2.818
					c0,1.555-1.261,2.814-2.817,2.814c-1.555,0-2.815-1.26-2.815-2.814C-865.074,217.508-863.813,216.247-862.259,216.247z"/>
			</g>
		</g>
	</g>
</g>
<g id="OBJECTS">
	<g>
		<circle fill="none" stroke="#F1F1F1" stroke-width="3" stroke-miterlimit="10" cx="-1036.216" cy="256.377" r="9.065"/>
		<circle fill="none" stroke="#F1F1F1" stroke-width="3" stroke-miterlimit="10" cx="-1036.216" cy="355.49" r="9.065"/>
		<polyline fill="none" stroke="#F1F1F1" stroke-width="3" stroke-miterlimit="10" points="-1013.132,256.377 -1036.216,279.461 
			-1059.3,256.377 		"/>
		<polygon fill="none" stroke="#F1F1F1" stroke-width="3" stroke-miterlimit="10" points="-923.251,282.383 -923.251,329.484 
			-955.245,305.934 		"/>
		<polygon fill="none" stroke="#F1F1F1" stroke-width="3" stroke-miterlimit="10" points="-865.533,282.383 -865.533,329.484 
			-833.539,305.934 		"/>
		<polygon fill="none" stroke="#F1F1F1" stroke-width="3" stroke-miterlimit="10" points="-814.893,329.484 -803.645,305.934 
			-814.893,282.384 -768.928,305.934 		"/>
		
			<rect x="-1006.808" y="288.917" transform="matrix(0.7071 0.7071 -0.7071 0.7071 -73.5765 789.496)" fill="none" stroke="#F1F1F1" stroke-width="3" stroke-miterlimit="10" width="34.032" height="34.032"/>
		
			<rect x="-1097.28" y="288.917" transform="matrix(0.7071 0.7071 -0.7071 0.7071 -100.0743 853.468)" fill="none" stroke="#F1F1F1" stroke-width="3" stroke-miterlimit="10" width="34.032" height="34.032"/>
		<g>
			<polyline fill="none" stroke="#F1F1F1" stroke-width="3" stroke-miterlimit="10" points="-1002.909,272.628 -1036.215,305.934 
				-1069.523,272.627 			"/>
			<polyline fill="none" stroke="#F1F1F1" stroke-width="3" stroke-miterlimit="10" points="-1002.909,339.24 -1036.215,305.934 
				-1069.523,339.24 			"/>
		</g>
		<g>
			<polyline fill="none" stroke="#F1F1F1" stroke-width="3" stroke-miterlimit="10" points="-877.411,288.504 -894.841,305.934 
				-912.272,288.504 			"/>
			<polyline fill="none" stroke="#F1F1F1" stroke-width="3" stroke-miterlimit="10" points="-877.411,323.363 -894.841,305.934 
				-912.272,323.363 			"/>
		</g>
		<polyline fill="none" stroke="#F1F1F1" stroke-width="3" stroke-miterlimit="10" points="-1013.132,355.49 -1036.216,332.406 
			-1059.3,355.49 		"/>
		
			<line fill="none" stroke="#F1F1F1" stroke-width="3" stroke-miterlimit="10" x1="-966.911" y1="305.934" x2="-955.245" y2="305.934"/>
		
			<line fill="none" stroke="#F1F1F1" stroke-width="3" stroke-miterlimit="10" x1="-922.194" y1="305.934" x2="-865.533" y2="305.934"/>
		
			<line fill="none" stroke="#F1F1F1" stroke-width="3" stroke-miterlimit="10" x1="-833.539" y1="305.934" x2="-804.645" y2="305.934"/>
		
			<line fill="none" stroke="#F1F1F1" stroke-width="3" stroke-miterlimit="10" x1="-1161.506" y1="305.934" x2="-1104.84" y2="305.934"/>
		<polyline fill="none" stroke="#F1F1F1" stroke-width="3" stroke-miterlimit="10" points="-1165.064,272.627 -1131.757,305.932 
			-1165.064,339.24 		"/>
		<polyline fill="none" stroke="#F1F1F1" stroke-width="3" stroke-miterlimit="10" points="-1193.646,272.627 -1160.339,305.932 
			-1193.646,339.24 		"/>
		<polyline fill="none" stroke="#F1F1F1" stroke-width="3" stroke-miterlimit="10" points="-852.248,276.628 -818.941,305.934 
			-852.248,335.242 		"/>
	</g>
	<g>
		<g>
			<polyline fill="none" stroke="#F1F1F1" stroke-width="3" stroke-miterlimit="10" points="-512.837,373.483 -546.144,340.176 
				-512.837,306.869 			"/>
			<polyline fill="none" stroke="#F1F1F1" stroke-width="3" stroke-miterlimit="10" points="-496.587,362.24 -519.671,339.156 
				-496.587,316.072 			"/>
			<polyline fill="none" stroke="#F1F1F1" stroke-width="3" stroke-miterlimit="10" points="-529.892,373.483 -496.585,340.176 
				-529.894,306.869 			"/>
			<polyline fill="none" stroke="#F1F1F1" stroke-width="3" stroke-miterlimit="10" points="-546.144,362.24 -523.06,339.156 
				-546.144,316.072 			"/>
		</g>
		<g>
			<polygon fill="none" stroke="#F1F1F1" stroke-width="3" stroke-miterlimit="10" points="-505.808,264.581 -521.364,257.15 
				-536.921,264.581 -521.364,227.673 			"/>
			
				<line fill="none" stroke="#F1F1F1" stroke-width="3" stroke-miterlimit="10" x1="-521.364" y1="314.749" x2="-521.364" y2="257.119"/>
		</g>
		<g>
			<polygon fill="none" stroke="#F1F1F1" stroke-width="3" stroke-miterlimit="10" points="-505.808,415.56 -521.364,422.989 
				-536.921,415.56 -521.364,452.466 			"/>
			
				<line fill="none" stroke="#F1F1F1" stroke-width="3" stroke-miterlimit="10" x1="-521.364" y1="365.39" x2="-521.364" y2="423.02"/>
		</g>
		<path fill="none" stroke="#F1F1F1" stroke-width="3" stroke-miterlimit="10" d="M-516.026,270.156c-0.75,0-11.5,0-11.5,0"/>
		<path fill="none" stroke="#F1F1F1" stroke-width="3" stroke-miterlimit="10" d="M-516.026,411.155c-0.75,0-11.5,0-11.5,0"/>
	</g>
	<g>
		<path fill="none" stroke="#F1F1F1" stroke-width="3" stroke-miterlimit="10" d="M-517.94,760.145
			c0-9.777,5.611-18.236,13.783-22.354c-3.379-1.701-7.193-2.666-11.234-2.666c-13.816,0-25.018,11.201-25.018,25.02
			c0,13.816,11.201,25.018,25.018,25.018c4.041,0,7.855-0.965,11.234-2.666C-512.329,778.382-517.94,769.921-517.94,760.145z"/>
		<polyline fill="none" stroke="#F1F1F1" stroke-width="3" stroke-miterlimit="10" points="-502.06,622.216 -522.282,642.438 
			-542.507,622.216 		"/>
		<polyline fill="none" stroke="#F1F1F1" stroke-width="3" stroke-miterlimit="10" points="-502.06,612.103 -522.282,632.327 
			-542.507,612.103 		"/>
		<polyline fill="none" stroke="#F1F1F1" stroke-width="3" stroke-miterlimit="10" points="-502.06,601.991 -522.282,622.214 
			-542.507,601.991 		"/>
		
			<rect x="-531.075" y="575.514" transform="matrix(0.7071 0.7072 -0.7072 0.7071 261.1959 540.0865)" fill="none" stroke="#F1F1F1" stroke-width="3" stroke-miterlimit="10" width="19.582" height="19.582"/>
		
			<rect x="-531.075" y="561.668" transform="matrix(0.7071 0.7071 -0.7071 0.7071 251.4018 535.9773)" fill="none" stroke="#F1F1F1" stroke-width="3" stroke-miterlimit="10" width="19.581" height="19.582"/>
		
			<line fill="none" stroke="#F1F1F1" stroke-width="3" stroke-miterlimit="10" x1="-521.366" y1="546.21" x2="-521.366" y2="735.126"/>
		<g>
			
				<line fill="none" stroke="#F1F1F1" stroke-width="3" stroke-miterlimit="10" x1="-529.245" y1="721.544" x2="-513.485" y2="721.544"/>
			
				<line fill="none" stroke="#F1F1F1" stroke-width="3" stroke-miterlimit="10" x1="-537.126" y1="711.378" x2="-505.606" y2="711.378"/>
			
				<line fill="none" stroke="#F1F1F1" stroke-width="3" stroke-miterlimit="10" x1="-549.097" y1="701.212" x2="-493.634" y2="701.212"/>
		</g>
		<circle fill="none" stroke="#F1F1F1" stroke-width="3" stroke-miterlimit="10" cx="-521.283" cy="670.337" r="18.126"/>
		
			<line fill="none" stroke="#F1F1F1" stroke-width="3" stroke-miterlimit="10" x1="-521.284" y1="541.544" x2="-521.284" y2="531.544"/>
		
			<line fill="none" stroke="#F1F1F1" stroke-width="3" stroke-miterlimit="10" x1="-521.284" y1="527.878" x2="-521.284" y2="517.878"/>
		
			<line fill="none" stroke="#F1F1F1" stroke-width="3" stroke-miterlimit="10" x1="-521.284" y1="513.878" x2="-521.284" y2="503.878"/>
	</g>
	<g>
		<circle fill="none" stroke="#F1F1F1" stroke-width="3" stroke-miterlimit="10" cx="-862.634" cy="574.819" r="20.615"/>
		<circle fill="none" stroke="#F1F1F1" stroke-width="3" stroke-miterlimit="10" cx="-885.049" cy="574.819" r="20.616"/>
		<polyline fill="none" stroke="#F1F1F1" stroke-width="3" stroke-miterlimit="10" points="-1058.65,527.498 -1011.327,574.821 
			-1058.65,622.143 		"/>
		<polyline fill="none" stroke="#F1F1F1" stroke-width="3" stroke-miterlimit="10" points="-1060.151,549.52 -1034.853,574.821 
			-1060.151,600.121 		"/>
		<polyline fill="none" stroke="#F1F1F1" stroke-width="3" stroke-miterlimit="10" points="-830.714,527.498 -783.392,574.821 
			-830.714,622.143 		"/>
		<polyline fill="none" stroke="#F1F1F1" stroke-width="3" stroke-miterlimit="10" points="-832.216,549.52 -806.916,574.821 
			-832.216,600.121 		"/>
		<polygon fill="none" stroke="#F1F1F1" stroke-width="3" stroke-miterlimit="10" points="-987.886,598.371 -987.886,551.27 
			-956.89,574.821 		"/>
		<polygon fill="none" stroke="#F1F1F1" stroke-width="3" stroke-miterlimit="10" points="-971.888,598.371 -971.888,551.27 
			-939.894,574.821 		"/>
		<polygon fill="none" stroke="#F1F1F1" stroke-width="3" stroke-miterlimit="10" points="-955.89,598.371 -955.89,551.27 
			-923.896,574.821 		"/>
		
			<line fill="none" stroke="#F1F1F1" stroke-width="3" stroke-miterlimit="10" x1="-1034.853" y1="574.821" x2="-987.886" y2="574.821"/>
		
			<line fill="none" stroke="#F1F1F1" stroke-width="3" stroke-miterlimit="10" x1="-923.896" y1="574.821" x2="-906.276" y2="574.821"/>
		
			<line fill="none" stroke="#F1F1F1" stroke-width="3" stroke-miterlimit="10" x1="-841.838" y1="574.821" x2="-769.19" y2="574.821"/>
		<path fill="none" stroke="#F1F1F1" stroke-width="3" stroke-miterlimit="10" d="M-769.998,595.68
			c11.521,0,20.859-9.338,20.859-20.859s-9.339-20.859-20.859-20.859c-0.015,0-0.029,0.001-0.044,0.001v41.717
			C-770.027,595.68-770.013,595.68-769.998,595.68z"/>
	</g>
	<g>
		<g>
			
				<line fill="none" stroke="#F1F1F1" stroke-width="3" stroke-miterlimit="10" x1="-577.187" y1="802.205" x2="-632.649" y2="802.205"/>
			
				<line fill="none" stroke="#F1F1F1" stroke-width="3" stroke-miterlimit="10" x1="-780.159" y1="802.205" x2="-686.698" y2="802.205"/>
			<g>
				<g>
					<polyline fill="none" stroke="#F1F1F1" stroke-width="3" stroke-miterlimit="10" points="-585.337,835.512 -618.644,802.205 
						-585.337,768.898 					"/>
					<polyline fill="none" stroke="#F1F1F1" stroke-width="3" stroke-miterlimit="10" points="-578.665,825.534 -601.995,802.205 
						-578.665,778.876 					"/>
					<polyline fill="none" stroke="#F1F1F1" stroke-width="3" stroke-miterlimit="10" points="-571.933,816.194 -585.923,802.205 
						-571.933,788.217 					"/>
				</g>
				<polygon fill="none" stroke="#F1F1F1" stroke-width="3" stroke-miterlimit="10" points="-780.159,778.653 -780.159,825.756 
					-812.153,802.204 				"/>
				
					<rect x="-755.416" y="789.448" transform="matrix(0.7071 0.7071 -0.7071 0.7071 349.7269 760.1288)" fill="none" stroke="#F1F1F1" stroke-width="3" stroke-miterlimit="10" width="25.517" height="25.515"/>
				<path fill="none" stroke="#F1F1F1" stroke-width="3" stroke-miterlimit="10" d="M-663.313,778.82
					c-12.916,0-23.385,10.47-23.385,23.385c0,12.915,10.469,23.385,23.385,23.385c0.016,0,0.033-0.001,0.049-0.001v-46.768
					C-663.28,778.821-663.298,778.82-663.313,778.82z"/>
				<path fill="none" stroke="#F1F1F1" stroke-width="3" stroke-miterlimit="10" d="M-632.595,802.205
					c0-12.898-10.443-23.356-23.336-23.384v46.768C-643.038,825.561-632.595,815.103-632.595,802.205z"/>
			</g>
		</g>
		<g>
			
				<line fill="none" stroke="#F1F1F1" stroke-width="3" stroke-miterlimit="10" x1="-1057.492" y1="802.205" x2="-1002.029" y2="802.205"/>
			
				<line fill="none" stroke="#F1F1F1" stroke-width="3" stroke-miterlimit="10" x1="-854.521" y1="802.205" x2="-947.98" y2="802.205"/>
			<g>
				<g>
					<polyline fill="none" stroke="#F1F1F1" stroke-width="3" stroke-miterlimit="10" points="-1049.342,835.512 -1016.036,802.205 
						-1049.342,768.898 					"/>
					<polyline fill="none" stroke="#F1F1F1" stroke-width="3" stroke-miterlimit="10" points="-1056.013,825.534 -1032.683,802.205 
						-1056.013,778.876 					"/>
					<polyline fill="none" stroke="#F1F1F1" stroke-width="3" stroke-miterlimit="10" points="-1062.746,816.194 -1048.756,802.205 
						-1062.746,788.217 					"/>
				</g>
				<polygon fill="none" stroke="#F1F1F1" stroke-width="3" stroke-miterlimit="10" points="-854.521,778.653 -854.521,825.756 
					-822.526,802.204 				"/>
				
					<rect x="-904.78" y="789.448" transform="matrix(-0.7071 0.7071 -0.7071 -0.7071 -955.4971 2000.2064)" fill="none" stroke="#F1F1F1" stroke-width="3" stroke-miterlimit="10" width="25.517" height="25.515"/>
				<path fill="none" stroke="#F1F1F1" stroke-width="3" stroke-miterlimit="10" d="M-971.365,778.82
					c12.915,0,23.385,10.47,23.385,23.385c0,12.915-10.47,23.385-23.385,23.385c-0.017,0-0.033-0.001-0.05-0.001v-46.768
					C-971.398,778.821-971.381,778.82-971.365,778.82z"/>
				<path fill="none" stroke="#F1F1F1" stroke-width="3" stroke-miterlimit="10" d="M-1002.084,802.205
					c0-12.898,10.443-23.356,23.336-23.384v46.768C-991.64,825.561-1002.084,815.103-1002.084,802.205z"/>
			</g>
		</g>
	</g>
	<g>
		<circle fill="none" stroke="#0E0E0E" stroke-width="5" stroke-miterlimit="10" cx="102.77" cy="196.138" r="11.833"/>
		<circle fill="none" stroke="#0E0E0E" stroke-width="5" stroke-miterlimit="10" cx="14.593" cy="196.138" r="11.833"/>
		<polyline fill="none" stroke="#0E0E0E" stroke-width="5" stroke-miterlimit="10" points="9.21,161.337 43.643,195.77 
			9.21,230.203 		"/>
		<polyline fill="none" stroke="#0E0E0E" stroke-width="5" stroke-miterlimit="10" points="106.986,230.203 72.554,195.77 
			106.986,161.337 		"/>
		<polygon fill="none" stroke="#0E0E0E" stroke-width="5" stroke-miterlimit="10" points="32.818,123.807 57.166,135.435 
			81.515,123.807 57.166,197.171 		"/>
		<polygon fill="none" stroke="#0E0E0E" stroke-width="5" stroke-miterlimit="10" points="81.514,270.946 57.165,259.317 
			32.818,270.946 57.165,197.581 		"/>
		<g>
			
				<line fill="none" stroke="#0E0E0E" stroke-width="5" stroke-miterlimit="10" x1="74.855" y1="215.558" x2="114.603" y2="268.694"/>
			
				<line fill="none" stroke="#0E0E0E" stroke-width="5" stroke-miterlimit="10" x1="74.855" y1="175.91" x2="114.603" y2="122.773"/>
		</g>
		<g>
			<line fill="none" stroke="#0E0E0E" stroke-width="5" stroke-miterlimit="10" x1="41.749" y1="215.558" x2="2.002" y2="268.694"/>
			<line fill="none" stroke="#0E0E0E" stroke-width="5" stroke-miterlimit="10" x1="41.749" y1="175.91" x2="2.002" y2="122.773"/>
		</g>
		<g>
			<path fill="none" stroke="#0E0E0E" stroke-width="5" stroke-miterlimit="10" d="M57.166,341.292
				c14.267,0,25.835-11.552,25.863-25.811H31.304C31.332,329.74,42.9,341.292,57.166,341.292z"/>
			
				<rect x="46.184" y="279.634" fill="none" stroke="#0E0E0E" stroke-width="5" stroke-miterlimit="10" width="21.966" height="21.967"/>
			<polyline fill="none" stroke="#0E0E0E" stroke-width="5" stroke-miterlimit="10" points="88.645,358.925 57.165,390.408 
				25.686,358.925 			"/>
			
				<line fill="none" stroke="#0E0E0E" stroke-width="5" stroke-miterlimit="10" x1="57.167" y1="315.481" x2="57.167" y2="259.317"/>
			
				<line fill="none" stroke="#0E0E0E" stroke-width="5" stroke-miterlimit="10" x1="57.167" y1="342.879" x2="57.167" y2="390.164"/>
		</g>
		<g>
			<path fill="none" stroke="#0E0E0E" stroke-width="5" stroke-miterlimit="10" d="M57.166,52.65
				c14.267,0,25.835,11.552,25.863,25.811H31.304C31.332,64.202,42.9,52.65,57.166,52.65z"/>
			
				<rect x="46.184" y="92.341" fill="none" stroke="#0E0E0E" stroke-width="5" stroke-miterlimit="10" width="21.966" height="21.967"/>
			<polyline fill="none" stroke="#0E0E0E" stroke-width="5" stroke-miterlimit="10" points="88.645,35.016 57.165,3.536 
				25.686,35.016 			"/>
			<line fill="none" stroke="#0E0E0E" stroke-width="5" stroke-miterlimit="10" x1="57.167" y1="78.46" x2="57.167" y2="134.624"/>
			<line fill="none" stroke="#0E0E0E" stroke-width="5" stroke-miterlimit="10" x1="57.167" y1="51.062" x2="57.167" y2="3.778"/>
		</g>
	</g>
	<g>
		<g>
			<path fill="none" stroke="#F1F1F1" stroke-width="3" stroke-miterlimit="10" d="M-1048.998,910.637
				c0,9.776-5.61,18.236-13.784,22.354c3.379,1.701,7.193,2.666,11.235,2.666c13.817,0,25.019-11.201,25.019-25.02
				c0-13.816-11.201-25.018-25.019-25.018c-4.042,0-7.856,0.964-11.235,2.666C-1054.609,892.4-1048.998,900.861-1048.998,910.637z"
				/>
			<polyline fill="none" stroke="#F1F1F1" stroke-width="3" stroke-miterlimit="10" points="-790.04,955.115 -840.632,911.523 
				-790.04,867.932 			"/>
			<polygon fill="none" stroke="#F1F1F1" stroke-width="3" stroke-miterlimit="10" points="-855.898,927.6 -855.898,895.447 
				-886.445,911.523 			"/>
			
				<rect x="-987.153" y="897.826" transform="matrix(0.7071 0.7071 -0.7071 0.7071 359.4253 955.333)" fill="none" stroke="#F1F1F1" stroke-width="3" stroke-miterlimit="10" width="27.395" height="27.395"/>
			<polyline fill="none" stroke="#F1F1F1" stroke-width="3" stroke-miterlimit="10" points="-790.472,934.484 -820.433,911.523 
				-790.472,888.562 			"/>
			<polyline fill="none" stroke="#F1F1F1" stroke-width="3" stroke-miterlimit="10" points="-989.441,932.756 -1011.559,910.638 
				-989.441,888.52 			"/>
			<polyline fill="none" stroke="#F1F1F1" stroke-width="3" stroke-miterlimit="10" points="-841.3,877.844 -907.061,911.525 
				-841.3,945.203 			"/>
			
				<line fill="none" stroke="#F1F1F1" stroke-width="3" stroke-miterlimit="10" x1="-840.632" y1="911.523" x2="-856.502" y2="911.523"/>
			
				<line fill="none" stroke="#F1F1F1" stroke-width="3" stroke-miterlimit="10" x1="-773.335" y1="910.638" x2="-819.437" y2="910.638"/>
			
				<line fill="none" stroke="#F1F1F1" stroke-width="3" stroke-miterlimit="10" x1="-907.797" y1="911.523" x2="-918.667" y2="911.523"/>
			
				<line fill="none" stroke="#F1F1F1" stroke-width="3" stroke-miterlimit="10" x1="-923.668" y1="911.523" x2="-930.501" y2="911.523"/>
			
				<line fill="none" stroke="#F1F1F1" stroke-width="3" stroke-miterlimit="10" x1="-937.501" y1="911.523" x2="-955.501" y2="911.523"/>
			
				<line fill="none" stroke="#F1F1F1" stroke-width="3" stroke-miterlimit="10" x1="-993.085" y1="911.523" x2="-1026.528" y2="911.523"/>
		</g>
		<g>
			<path fill="none" stroke="#F1F1F1" stroke-width="3" stroke-miterlimit="10" d="M-516.508,910.637
				c0,9.776,5.611,18.236,13.785,22.354c-3.379,1.701-7.193,2.666-11.236,2.666c-13.816,0-25.017-11.201-25.017-25.02
				c0-13.816,11.201-25.018,25.017-25.018c4.043,0,7.858,0.964,11.236,2.666C-510.897,892.4-516.508,900.861-516.508,910.637z"/>
			<polyline fill="none" stroke="#F1F1F1" stroke-width="3" stroke-miterlimit="10" points="-775.464,955.115 -724.872,911.523 
				-775.464,867.932 			"/>
			<polygon fill="none" stroke="#F1F1F1" stroke-width="3" stroke-miterlimit="10" points="-709.605,927.6 -709.605,895.447 
				-679.061,911.523 			"/>
			
				<rect x="-605.746" y="897.827" transform="matrix(-0.7071 0.7071 -0.7071 -0.7071 -366.0912 1974.698)" fill="none" stroke="#F1F1F1" stroke-width="3" stroke-miterlimit="10" width="27.393" height="27.393"/>
			<polyline fill="none" stroke="#F1F1F1" stroke-width="3" stroke-miterlimit="10" points="-775.032,934.484 -745.071,911.523 
				-775.032,888.562 			"/>
			<polyline fill="none" stroke="#F1F1F1" stroke-width="3" stroke-miterlimit="10" points="-576.065,932.756 -553.945,910.638 
				-576.065,888.52 			"/>
			<polyline fill="none" stroke="#F1F1F1" stroke-width="3" stroke-miterlimit="10" points="-724.204,877.844 -658.443,911.525 
				-724.204,945.203 			"/>
			
				<line fill="none" stroke="#F1F1F1" stroke-width="3" stroke-miterlimit="10" x1="-724.872" y1="911.523" x2="-709.004" y2="911.523"/>
			
				<line fill="none" stroke="#F1F1F1" stroke-width="3" stroke-miterlimit="10" x1="-792.169" y1="910.638" x2="-746.068" y2="910.638"/>
			
				<line fill="none" stroke="#F1F1F1" stroke-width="3" stroke-miterlimit="10" x1="-657.707" y1="911.523" x2="-646.838" y2="911.523"/>
			
				<line fill="none" stroke="#F1F1F1" stroke-width="3" stroke-miterlimit="10" x1="-641.836" y1="911.523" x2="-635.004" y2="911.523"/>
			
				<line fill="none" stroke="#F1F1F1" stroke-width="3" stroke-miterlimit="10" x1="-628.004" y1="911.523" x2="-610.004" y2="911.523"/>
			
				<line fill="none" stroke="#F1F1F1" stroke-width="3" stroke-miterlimit="10" x1="-572.42" y1="911.523" x2="-538.977" y2="911.523"/>
		</g>
		
			<line fill="none" stroke="#F1F1F1" stroke-width="3" stroke-miterlimit="10" x1="-782.364" y1="899.75" x2="-782.364" y2="848.993"/>
		<line fill="none" stroke="#F1F1F1" stroke-width="3" stroke-miterlimit="10" x1="-782.364" y1="973" x2="-782.364" y2="922.243"/>
	</g>
	<g>
		<circle fill="none" stroke="#F1F1F1" stroke-width="3" stroke-miterlimit="10" cx="-1037.345" cy="698.07" r="19.83"/>
		<path fill="none" stroke="#F1F1F1" stroke-width="3" stroke-miterlimit="10" d="M-865.678,683.27
			c0-13.816-11.201-25.018-25.018-25.018c-13.817,0-25.018,11.201-25.018,25.018c0,0.018,0.002,0.035,0.002,0.053h50.033
			C-865.68,683.305-865.678,683.287-865.678,683.27z"/>
		<path fill="none" stroke="#F1F1F1" stroke-width="3" stroke-miterlimit="10" d="M-877.658,737.785
			c13.801,0,24.99-11.174,25.018-24.967h-50.034C-902.646,726.611-891.457,737.785-877.658,737.785z"/>
		<polyline fill="none" stroke="#F1F1F1" stroke-width="3" stroke-miterlimit="10" points="-743.057,664.764 -709.75,698.07 
			-743.057,731.377 		"/>
		<polyline fill="none" stroke="#F1F1F1" stroke-width="3" stroke-miterlimit="10" points="-834.619,653.473 -791.043,697.881 
			-835.641,742.48 		"/>
		<polyline fill="none" stroke="#F1F1F1" stroke-width="3" stroke-miterlimit="10" points="-925.556,731.377 -958.863,698.07 
			-925.556,664.762 		"/>
		<polyline fill="none" stroke="#F1F1F1" stroke-width="3" stroke-miterlimit="10" points="-944.656,731.377 -977.962,698.07 
			-944.656,664.762 		"/>
		<polyline fill="none" stroke="#F1F1F1" stroke-width="3" stroke-miterlimit="10" points="-963.755,731.377 -997.062,698.07 
			-963.755,664.762 		"/>
		<polygon fill="none" stroke="#F1F1F1" stroke-width="3" stroke-miterlimit="10" points="-790.022,721.621 -790.022,674.52 
			-758.027,698.07 		"/>
		<polygon fill="none" stroke="#F1F1F1" stroke-width="3" stroke-miterlimit="10" points="-691.666,721.621 -682.738,698.07 
			-691.666,674.52 -635.338,698.07 		"/>
		
			<rect x="-830.082" y="681.574" transform="matrix(-0.7071 0.7071 -0.7071 -0.7071 -896.228 1766.5895)" fill="none" stroke="#F1F1F1" stroke-width="3" stroke-miterlimit="10" width="32.235" height="32.234"/>
		
			<line fill="none" stroke="#F1F1F1" stroke-width="3" stroke-miterlimit="10" x1="-791.17" y1="698.07" x2="-1017.514" y2="698.07"/>
		
			<line fill="none" stroke="#F1F1F1" stroke-width="3" stroke-miterlimit="10" x1="-879.428" y1="698.07" x2="-879.428" y2="720.863"/>
		
			<line fill="none" stroke="#F1F1F1" stroke-width="3" stroke-miterlimit="10" x1="-891.73" y1="672.484" x2="-891.73" y2="698.07"/>
		
			<line fill="none" stroke="#F1F1F1" stroke-width="3" stroke-miterlimit="10" x1="-743.057" y1="674.52" x2="-743.057" y2="720.863"/>
		
			<line fill="none" stroke="#F1F1F1" stroke-width="3" stroke-miterlimit="10" x1="-731.834" y1="682.918" x2="-731.834" y2="712.463"/>
		
			<line fill="none" stroke="#F1F1F1" stroke-width="3" stroke-miterlimit="10" x1="-758.027" y1="698.07" x2="-682.59" y2="698.07"/>
		<polyline fill="none" stroke="#F1F1F1" stroke-width="3" stroke-miterlimit="10" points="-828.178,676.67 -849.678,698.463 
			-829.928,718.711 		"/>
		<g>
			
				<line fill="none" stroke="#F1F1F1" stroke-width="3" stroke-miterlimit="10" x1="-898.058" y1="690.695" x2="-905.391" y2="690.695"/>
			
				<line fill="none" stroke="#F1F1F1" stroke-width="3" stroke-miterlimit="10" x1="-878.068" y1="690.695" x2="-885.402" y2="690.695"/>
		</g>
		<g>
			
				<line fill="none" stroke="#F1F1F1" stroke-width="3" stroke-miterlimit="10" x1="-886.725" y1="705.443" x2="-894.058" y2="705.443"/>
			
				<line fill="none" stroke="#F1F1F1" stroke-width="3" stroke-miterlimit="10" x1="-866.736" y1="705.443" x2="-874.068" y2="705.443"/>
		</g>
		<circle fill="none" stroke="#F1F1F1" stroke-width="3" stroke-miterlimit="10" cx="-1037.345" cy="698.07" r="10.533"/>
		
			<line fill="none" stroke="#F1F1F1" stroke-width="3" stroke-miterlimit="10" x1="-813.965" y1="661.068" x2="-797.98" y2="677.67"/>
		
			<line fill="none" stroke="#F1F1F1" stroke-width="3" stroke-miterlimit="10" x1="-797.98" y1="716.711" x2="-813.965" y2="733.314"/>
	</g>
	<g>
		<path fill="none" stroke="#F1F1F1" stroke-width="3" stroke-miterlimit="10" d="M-780.94,442.694
			c0,9.776,5.61,18.236,13.783,22.354c-3.379,1.701-7.193,2.666-11.234,2.666c-13.817,0-25.018-11.201-25.018-25.02
			c0-13.816,11.201-25.018,25.018-25.018c4.041,0,7.855,0.964,11.234,2.666C-775.33,424.458-780.94,432.919-780.94,442.694z"/>
		<g>
			
				<line fill="none" stroke="#F1F1F1" stroke-width="3" stroke-miterlimit="10" x1="-825.88" y1="443.695" x2="-1066.228" y2="443.695"/>
			<g>
				<polyline fill="none" stroke="#F1F1F1" stroke-width="3" stroke-miterlimit="10" points="-886.937,410.388 -920.244,443.693 
					-886.937,477.002 				"/>
				<polyline fill="none" stroke="#F1F1F1" stroke-width="3" stroke-miterlimit="10" points="-870.284,410.388 -903.59,443.693 
					-870.284,477.002 				"/>
			</g>
			<polygon fill="none" stroke="#F1F1F1" stroke-width="3" stroke-miterlimit="10" points="-1149.32,467.246 -1162.416,443.695 
				-1149.32,420.144 -1199.287,443.694 			"/>
			
				<line fill="none" stroke="#F1F1F1" stroke-width="3" stroke-miterlimit="10" x1="-1141.067" y1="443.694" x2="-1161.32" y2="443.694"/>
		</g>
		<path fill="none" stroke="#F1F1F1" stroke-width="3" stroke-miterlimit="10" d="M-825.88,442.694
			c0,9.776-5.61,18.236-13.783,22.354c3.379,1.701,7.193,2.666,11.234,2.666c13.817,0,25.019-11.201,25.019-25.02
			c0-13.816-11.201-25.018-25.019-25.018c-4.041,0-7.855,0.964-11.234,2.666C-831.49,424.458-825.88,432.919-825.88,442.694z"/>
		<g>
			<polyline fill="none" stroke="#F1F1F1" stroke-width="3" stroke-miterlimit="10" points="-966.425,422.348 -987.166,443.089 
				-966.425,463.83 			"/>
			<polyline fill="none" stroke="#F1F1F1" stroke-width="3" stroke-miterlimit="10" points="-1007.841,463.83 -987.099,443.089 
				-1007.841,422.348 			"/>
			
				<rect x="-1001.765" y="429.366" transform="matrix(-0.7071 0.7071 -0.7071 -0.7071 -1371.1052 1455.9957)" fill="none" stroke="#F1F1F1" stroke-width="3" stroke-miterlimit="10" width="29.332" height="29.332"/>
			
				<rect x="-1025.018" y="406.114" transform="matrix(-0.7071 0.7071 -0.7071 -0.7071 -1371.1052 1455.9957)" fill="none" stroke="#F1F1F1" stroke-width="3" stroke-miterlimit="10" width="75.837" height="75.837"/>
			
				<rect x="-1021.141" y="409.99" fill="none" stroke="#F1F1F1" stroke-width="3" stroke-miterlimit="10" width="68.084" height="68.085"/>
		</g>
		<g>
			<path fill="none" stroke="#F1F1F1" stroke-width="3" stroke-miterlimit="10" d="M-1041.293,443.073
				c0-13.8-11.174-24.988-24.967-25.018v50.035C-1052.467,468.061-1041.293,456.873-1041.293,443.073z"/>
			
				<rect x="-1109.988" y="425.8" transform="matrix(0.7071 0.7071 -0.7071 0.7071 -6.7489 902.4554)" fill="none" stroke="#F1F1F1" stroke-width="3" stroke-miterlimit="10" width="34.507" height="34.563"/>
			
				<rect x="-1133.9" y="425.8" transform="matrix(0.7071 0.7071 -0.7071 0.7071 -13.7526 919.3638)" fill="none" stroke="#F1F1F1" stroke-width="3" stroke-miterlimit="10" width="34.507" height="34.563"/>
		</g>
		
			<rect x="-882.512" y="430.767" transform="matrix(0.7071 0.7071 -0.7071 0.7071 59.3769 744.7164)" fill="none" stroke="#F1F1F1" stroke-width="3" stroke-miterlimit="10" width="26.489" height="26.532"/>
	</g>
	<g>
		<g>
			<circle fill="none" stroke="#F1F1F1" stroke-width="3" stroke-miterlimit="10" cx="-1161.133" cy="617.619" r="12.99"/>
			<polyline fill="none" stroke="#F1F1F1" stroke-width="3" stroke-miterlimit="10" points="-1194.44,738.914 -1161.133,705.607 
				-1127.826,738.914 			"/>
			<polyline fill="none" stroke="#F1F1F1" stroke-width="3" stroke-miterlimit="10" points="-1116.645,853.504 -1161.131,897.99 
				-1205.619,853.504 			"/>
			<polyline fill="none" stroke="#F1F1F1" stroke-width="3" stroke-miterlimit="10" points="-1127.826,831.912 -1161.132,865.219 
				-1194.44,831.912 			"/>
			<polygon fill="none" stroke="#F1F1F1" stroke-width="3" stroke-miterlimit="10" points="-1142.446,590.084 -1160.803,581.316 
				-1179.161,590.084 -1160.803,534.768 			"/>
			<polygon fill="none" stroke="#F1F1F1" stroke-width="3" stroke-miterlimit="10" points="-1137.581,672.836 -1184.684,672.836 
				-1161.132,646.836 			"/>
			<g>
				
					<rect x="-1184.684" y="762.897" transform="matrix(0.7071 0.7071 -0.7071 0.7071 216.0071 1051.4313)" fill="none" stroke="#F1F1F1" stroke-width="3" stroke-miterlimit="10" width="47.104" height="47.103"/>
				
					<rect x="-1176.524" y="804.035" transform="matrix(0.7071 0.7071 -0.7071 0.7071 238.6625 1061.3274)" fill="none" stroke="#F1F1F1" stroke-width="3" stroke-miterlimit="10" width="29.439" height="29.44"/>
				
					<rect x="-1176.524" y="737.989" transform="matrix(0.7071 0.7071 -0.7071 0.7071 191.9471 1042.0481)" fill="none" stroke="#F1F1F1" stroke-width="3" stroke-miterlimit="10" width="29.44" height="29.44"/>
			</g>
			
				<line fill="none" stroke="#F1F1F1" stroke-width="3" stroke-miterlimit="10" x1="-1161.133" y1="705.607" x2="-1161.133" y2="672.836"/>
			
				<line fill="none" stroke="#F1F1F1" stroke-width="3" stroke-miterlimit="10" x1="-1161.133" y1="922.492" x2="-1161.133" y2="865.219"/>
			
				<line fill="none" stroke="#F1F1F1" stroke-width="3" stroke-miterlimit="10" x1="-1161.132" y1="646.836" x2="-1161.132" y2="630.609"/>
			
				<line fill="none" stroke="#F1F1F1" stroke-width="3" stroke-miterlimit="10" x1="-1161.132" y1="604.631" x2="-1161.132" y2="582.404"/>
			
				<line fill="none" stroke="#F1F1F1" stroke-width="3" stroke-miterlimit="10" x1="-1167.19" y1="682.168" x2="-1196.523" y2="682.168"/>
			
				<line fill="none" stroke="#F1F1F1" stroke-width="3" stroke-miterlimit="10" x1="-1124.857" y1="682.168" x2="-1154.19" y2="682.168"/>
			<g>
				
					<line fill="none" stroke="#F1F1F1" stroke-width="3" stroke-miterlimit="10" x1="-1170.133" y1="871.441" x2="-1210.165" y2="831.41"/>
				
					<line fill="none" stroke="#F1F1F1" stroke-width="3" stroke-miterlimit="10" x1="-1112.101" y1="831.41" x2="-1151.359" y2="870.668"/>
			</g>
			<polyline fill="none" stroke="#F1F1F1" stroke-width="3" stroke-miterlimit="10" points="-1151.359,774.586 -1139.523,786.447 
				-1151.359,797.937 			"/>
			<polyline fill="none" stroke="#F1F1F1" stroke-width="3" stroke-miterlimit="10" points="-1171.209,774.324 -1183.044,786.187 
				-1171.209,797.676 			"/>
			<g>
				
					<line fill="none" stroke="#F1F1F1" stroke-width="3" stroke-miterlimit="10" x1="-1170.133" y1="694.949" x2="-1210.165" y2="734.98"/>
				
					<line fill="none" stroke="#F1F1F1" stroke-width="3" stroke-miterlimit="10" x1="-1112.101" y1="734.98" x2="-1151.359" y2="695.723"/>
			</g>
		</g>
		
			<rect x="-1178.387" y="928.65" transform="matrix(-0.7071 0.7071 -0.7071 -0.7071 -1313.304 2435.8516)" fill="none" stroke="#F1F1F1" stroke-width="3" stroke-miterlimit="10" width="34.507" height="34.563"/>
		
			<rect x="-1168.126" y="938.927" transform="matrix(-0.7071 0.7071 -0.7071 -0.7071 -1313.2734 2435.8545)" fill="none" stroke="#F1F1F1" stroke-width="3" stroke-miterlimit="10" width="13.986" height="14.008"/>
	</g>
</g>
</svg>
