<?xml version="1.0" encoding="utf-8"?>
<!-- Generator: Adobe Illustrator 17.0.0, SVG Export Plug-In . SVG Version: 6.00 Build 0)  -->
<!DOCTYPE svg PUBLIC "-//W3C//DTD SVG 1.1//EN" "http://www.w3.org/Graphics/SVG/1.1/DTD/svg11.dtd">
<svg version="1.1" xmlns="http://www.w3.org/2000/svg" xmlns:xlink="http://www.w3.org/1999/xlink" x="0px" y="0px"
	 width="393.943px" height="117.103px" viewBox="0 0 393.943 117.103" enable-background="new 0 0 393.943 117.103"
	 xml:space="preserve">
<g id="BACKGROUND">
</g>
<g id="DESIGNED_BY_FREEPIK">
</g>
<g id="OBJECTS">
	<g>
		<circle fill="none" stroke="#0E0E0E" stroke-width="5" stroke-miterlimit="10" cx="196.138" cy="14.332" r="11.833"/>
		<circle fill="none" stroke="#0E0E0E" stroke-width="5" stroke-miterlimit="10" cx="196.138" cy="102.51" r="11.833"/>
		<polyline fill="none" stroke="#0E0E0E" stroke-width="5" stroke-miterlimit="10" points="161.337,107.893 195.77,73.46 
			230.203,107.893 		"/>
		<polyline fill="none" stroke="#0E0E0E" stroke-width="5" stroke-miterlimit="10" points="230.203,10.116 195.77,44.549 
			161.337,10.116 		"/>
		<polygon fill="none" stroke="#0E0E0E" stroke-width="5" stroke-miterlimit="10" points="123.807,84.284 135.435,59.936 
			123.807,35.588 197.171,59.936 		"/>
		<polygon fill="none" stroke="#0E0E0E" stroke-width="5" stroke-miterlimit="10" points="270.946,35.589 259.317,59.938 
			270.946,84.284 197.581,59.938 		"/>
		<g>
			<line fill="none" stroke="#0E0E0E" stroke-width="5" stroke-miterlimit="10" x1="215.558" y1="42.247" x2="268.694" y2="2.5"/>
			<line fill="none" stroke="#0E0E0E" stroke-width="5" stroke-miterlimit="10" x1="175.91" y1="42.247" x2="122.773" y2="2.5"/>
		</g>
		<g>
			
				<line fill="none" stroke="#0E0E0E" stroke-width="5" stroke-miterlimit="10" x1="215.558" y1="75.354" x2="268.694" y2="115.101"/>
			
				<line fill="none" stroke="#0E0E0E" stroke-width="5" stroke-miterlimit="10" x1="175.91" y1="75.354" x2="122.773" y2="115.101"/>
		</g>
		<g>
			<path fill="none" stroke="#0E0E0E" stroke-width="5" stroke-miterlimit="10" d="M341.292,59.936
				c0-14.267-11.552-25.835-25.811-25.863v51.725C329.74,85.771,341.292,74.202,341.292,59.936z"/>
			
				<rect x="279.634" y="48.953" fill="none" stroke="#0E0E0E" stroke-width="5" stroke-miterlimit="10" width="21.967" height="21.966"/>
			<polyline fill="none" stroke="#0E0E0E" stroke-width="5" stroke-miterlimit="10" points="358.925,28.457 390.408,59.938 
				358.925,91.417 			"/>
			
				<line fill="none" stroke="#0E0E0E" stroke-width="5" stroke-miterlimit="10" x1="315.481" y1="59.936" x2="259.317" y2="59.936"/>
			
				<line fill="none" stroke="#0E0E0E" stroke-width="5" stroke-miterlimit="10" x1="342.879" y1="59.936" x2="390.164" y2="59.936"/>
		</g>
		<g>
			<path fill="none" stroke="#0E0E0E" stroke-width="5" stroke-miterlimit="10" d="M52.65,59.936
				c0-14.267,11.552-25.835,25.811-25.863v51.725C64.202,85.771,52.65,74.202,52.65,59.936z"/>
			
				<rect x="92.341" y="48.953" fill="none" stroke="#0E0E0E" stroke-width="5" stroke-miterlimit="10" width="21.967" height="21.966"/>
			<polyline fill="none" stroke="#0E0E0E" stroke-width="5" stroke-miterlimit="10" points="35.016,28.457 3.536,59.938 
				35.016,91.417 			"/>
			<line fill="none" stroke="#0E0E0E" stroke-width="5" stroke-miterlimit="10" x1="78.46" y1="59.936" x2="134.624" y2="59.936"/>
			<line fill="none" stroke="#0E0E0E" stroke-width="5" stroke-miterlimit="10" x1="51.062" y1="59.936" x2="3.778" y2="59.936"/>
		</g>
	</g>
</g>
</svg>
