<?xml version="1.0" encoding="utf-8"?>
<!-- Generator: Adobe Illustrator 17.0.0, SVG Export Plug-In . SVG Version: 6.00 Build 0)  -->
<!DOCTYPE svg PUBLIC "-//W3C//DTD SVG 1.1//EN" "http://www.w3.org/Graphics/SVG/1.1/DTD/svg11.dtd">
<svg version="1.1" id="Layer_1" xmlns="http://www.w3.org/2000/svg" xmlns:xlink="http://www.w3.org/1999/xlink" x="0px" y="0px"
	 width="23.978px" height="23.976px" viewBox="0 0 23.978 23.976" enable-background="new 0 0 23.978 23.976" xml:space="preserve">
<rect x="-56.521" y="-69.612" display="none" fill-rule="evenodd" clip-rule="evenodd" fill="#F9F9F9" width="287.997" height="287.999"/>
<g>
	<g>
		<path fill="#4C76BE" d="M23.39,8.283c1.605,4.939-0.153,10.35-4.355,13.403c-4.202,3.053-9.891,3.053-14.093,0
			c-4.202-3.053-5.96-8.464-4.355-13.403C2.193,3.344,6.796,0,11.989,0C17.182,0,21.785,3.344,23.39,8.283z M11.989,1.08
			c-4.726,0-8.914,3.043-10.374,7.537c-1.46,4.494,0.139,9.418,3.962,12.195c3.823,2.778,9,2.778,12.823,0
			c3.823-2.777,5.423-7.701,3.962-12.195C20.903,4.123,16.715,1.08,11.989,1.08z"/>
	</g>
	<path fill-rule="evenodd" clip-rule="evenodd" fill="#4C76BE" d="M13.618,8.542c0.325-0.012,0.65-0.003,0.976-0.003
		c0.04,0,0.08,0,0.134,0V6.847c-0.174-0.017-0.355-0.042-0.537-0.051c-0.333-0.015-0.667-0.031-1.001-0.023
		c-0.51,0.011-0.992,0.135-1.414,0.437c-0.483,0.348-0.748,0.836-0.849,1.412c-0.042,0.237-0.053,0.484-0.059,0.725
		c-0.009,0.38-0.001,0.759-0.001,1.139v0.143H9.249v1.89h1.609v4.749h1.966v-4.741h1.604c0.082-0.629,0.163-1.251,0.247-1.898
		c-0.129,0-0.245-0.001-0.36,0c-0.456,0.002-1.503,0-1.503,0s0.004-0.936,0.016-1.343C12.842,8.727,13.172,8.558,13.618,8.542z"/>
</g>
</svg>
