<?xml version="1.0" encoding="utf-8"?>
<!-- Generator: Adobe Illustrator 17.0.0, SVG Export Plug-In . SVG Version: 6.00 Build 0)  -->
<!DOCTYPE svg PUBLIC "-//W3C//DTD SVG 1.1//EN" "http://www.w3.org/Graphics/SVG/1.1/DTD/svg11.dtd">
<svg version="1.1" id="Layer_1" xmlns="http://www.w3.org/2000/svg" xmlns:xlink="http://www.w3.org/1999/xlink" x="0px" y="0px"
	 width="119.993px" height="119.993px" viewBox="0 0 119.993 119.993" enable-background="new 0 0 119.993 119.993"
	 xml:space="preserve">
<path fill="#341642" d="M59.996,0C26.861,0,0,26.861,0,59.996c0,33.135,26.861,59.996,59.996,59.996s59.996-26.861,59.996-59.996
	C119.993,26.861,93.131,0,59.996,0z M96.057,28.435c0.67,0.292,0.83,1.405,0.359,2.488c-0.47,1.082-1.396,1.722-2.064,1.43
	c-0.669-0.291-0.828-1.402-0.357-2.485C94.466,28.785,95.388,28.146,96.057,28.435z M90.537,27c0.58-1.332,1.718-2.12,2.54-1.763
	c0.823,0.358,1.021,1.729,0.44,3.062c-0.58,1.332-1.715,2.121-2.538,1.763C90.154,29.704,89.958,28.333,90.537,27z M85.194,24.355
	c0.632-1.999,2.146-3.308,3.383-2.917c1.238,0.389,1.729,2.331,1.097,4.33c-0.632,2.002-2.146,3.31-3.382,2.919
	C85.052,28.297,84.562,26.358,85.194,24.355z M68.85,22.652c0.721-1.262,1.937-1.923,2.716-1.476
	c0.78,0.446,0.828,1.831,0.107,3.091c-0.722,1.261-1.938,1.922-2.718,1.475C68.175,25.298,68.128,23.914,68.85,22.652z
	 M65.014,21.904c0.586-1.026,1.572-1.562,2.205-1.202c0.631,0.363,0.669,1.486,0.085,2.51c-0.586,1.025-1.572,1.562-2.205,1.2
	C64.468,24.053,64.428,22.927,65.014,21.904z M62.16,22.417c0.335-0.806,1.011-1.292,1.508-1.086
	c0.498,0.209,0.63,1.029,0.294,1.836c-0.335,0.805-1.012,1.29-1.508,1.084C61.958,24.046,61.825,23.224,62.16,22.417z
	 M59.763,23.517c0.266-0.642,0.806-1.031,1.203-0.865c0.399,0.164,0.505,0.82,0.236,1.464c-0.266,0.643-0.807,1.033-1.204,0.866
	C59.601,24.815,59.495,24.161,59.763,23.517z M39.513,62.967c0.721-1.262,1.937-1.923,2.716-1.476
	c0.78,0.446,0.828,1.831,0.107,3.091c-0.722,1.261-1.938,1.922-2.718,1.475C38.838,65.613,38.791,64.229,39.513,62.967z
	 M35.677,62.219c0.586-1.026,1.572-1.562,2.205-1.202c0.631,0.363,0.669,1.486,0.085,2.51c-0.586,1.025-1.572,1.562-2.206,1.2
	C35.131,64.368,35.09,63.242,35.677,62.219z M32.823,62.732c0.335-0.806,1.011-1.292,1.508-1.086
	c0.498,0.209,0.63,1.029,0.294,1.836c-0.335,0.805-1.012,1.29-1.508,1.084C32.62,64.36,32.487,63.538,32.823,62.732z M30.425,63.831
	c0.266-0.642,0.806-1.031,1.203-0.865c0.399,0.164,0.505,0.82,0.236,1.464c-0.266,0.643-0.807,1.033-1.204,0.866
	C30.263,65.13,30.158,64.476,30.425,63.831z M42.767,74.013c-0.946,3.127-4.77,3.222-6.962,3.989
	c-2.535,0.888-4.215,3.532-3.792,6.123c0.178,1.077,1.865,6.261-0.87,9.174c-1.388,1.478-2.944,1.671-4.627,1.223
	c-5.596-1.489-4.114-5.779-3.271-7.591c0.793-1.698,1.359-3.448,1.438-5.329c0.236-4.696,0.693-12.007,4.668-13.65
	C35.21,65.532,43.897,70.26,42.767,74.013z M43.517,68.994c-1.053-0.758-0.909-2.753,0.317-4.457
	c1.228-1.704,3.075-2.469,4.128-1.711c1.051,0.757,0.909,2.753-0.317,4.457C46.417,68.984,44.57,69.752,43.517,68.994z
	 M58.114,91.64c-1.458,1.189-2.525,2.69-3.411,4.342c-0.948,1.759-3.499,5.511-8.039,1.915c-1.367-1.082-2.141-2.444-1.788-4.44
	c0.698-3.934,5.862-5.682,6.833-6.182c2.329-1.211,3.443-4.139,2.638-6.701c-0.696-2.215-2.906-5.338-0.966-7.966
	c2.332-3.15,11.318,0.982,12.882,7.128C67.323,83.904,61.736,88.643,58.114,91.64z M55.856,64.67
	c0.633-1.999,2.147-3.308,3.383-2.917c1.238,0.39,1.729,2.331,1.097,4.33c-0.632,2.002-2.146,3.31-3.382,2.919
	C55.714,68.612,55.224,66.673,55.856,64.67z M64.18,68.615c-0.58,1.332-1.715,2.121-2.538,1.763
	c-0.826-0.358-1.022-1.729-0.442-3.062c0.58-1.332,1.718-2.12,2.54-1.763C64.563,65.911,64.761,67.281,64.18,68.615z M64.657,70.183
	c0.471-1.083,1.393-1.722,2.062-1.433c0.67,0.292,0.83,1.405,0.359,2.487c-0.47,1.082-1.396,1.722-2.064,1.43
	C64.345,72.377,64.186,71.266,64.657,70.183z M66.725,74.694c-0.463-0.275-0.479-1.108-0.035-1.857
	c0.446-0.752,1.183-1.137,1.647-0.86c0.464,0.274,0.48,1.107,0.034,1.857C67.926,74.584,67.188,74.969,66.725,74.694z
	 M68.921,76.407c-0.354,0.601-0.944,0.906-1.314,0.688c-0.369-0.221-0.383-0.885-0.028-1.484c0.356-0.598,0.946-0.906,1.316-0.685
	C69.265,75.145,69.276,75.81,68.921,76.407z M72.105,33.699c-0.946,3.127-4.77,3.222-6.962,3.989
	c-2.535,0.888-4.215,3.532-3.792,6.123c0.178,1.077,1.865,6.261-0.87,9.174c-1.388,1.478-2.944,1.671-4.627,1.223
	c-5.596-1.489-4.114-5.779-3.271-7.591c0.793-1.698,1.359-3.448,1.438-5.329c0.236-4.696,0.693-12.007,4.668-13.65
	C64.548,25.217,73.235,29.945,72.105,33.699z M72.854,28.68c-1.053-0.758-0.909-2.753,0.317-4.457
	c1.228-1.704,3.075-2.469,4.128-1.711c1.051,0.757,0.909,2.753-0.317,4.457C75.754,28.669,73.907,29.438,72.854,28.68z
	 M87.451,51.326c-1.458,1.189-2.525,2.69-3.411,4.342c-0.948,1.759-3.499,5.511-8.039,1.915c-1.367-1.082-2.141-2.444-1.788-4.44
	c0.698-3.934,5.862-5.682,6.833-6.182c2.329-1.211,3.443-4.139,2.638-6.701c-0.696-2.215-2.906-5.338-0.966-7.966
	c2.332-3.15,11.318,0.982,12.882,7.128C96.66,43.589,91.074,48.328,87.451,51.326z M96.062,34.379
	c-0.463-0.275-0.479-1.108-0.035-1.857c0.446-0.752,1.183-1.137,1.647-0.86c0.464,0.274,0.48,1.107,0.034,1.857
	C97.264,34.269,96.525,34.654,96.062,34.379z M98.259,36.092c-0.354,0.601-0.944,0.906-1.314,0.688
	c-0.369-0.221-0.383-0.885-0.028-1.484c0.356-0.598,0.945-0.906,1.316-0.685C98.602,34.83,98.614,35.495,98.259,36.092z"/>
</svg>
