<?xml version="1.0" encoding="utf-8"?>
<!-- Generator: Adobe Illustrator 17.0.0, SVG Export Plug-In . SVG Version: 6.00 Build 0)  -->
<!DOCTYPE svg PUBLIC "-//W3C//DTD SVG 1.1//EN" "http://www.w3.org/Graphics/SVG/1.1/DTD/svg11.dtd">
<svg version="1.1" id="Layer_1" xmlns="http://www.w3.org/2000/svg" xmlns:xlink="http://www.w3.org/1999/xlink" x="0px" y="0px"
	 width="119.993px" height="119.993px" viewBox="0 0 119.993 119.993" enable-background="new 0 0 119.993 119.993"
	 xml:space="preserve">
<g>
	<g>
		<path fill="#423547" d="M67.326,66.422c-0.886-0.002-1.773,0.036-2.659,0.048c-0.198,0.003-0.287,0.191-0.331-0.011
			c-0.153-0.719-0.443-1.678-0.846-1.678c-0.057,0-0.115,0-0.17,0c-0.041,0,0.026-0.211,0.06-0.163
			c0.04,0.056,0.072,0.163,0.11,0.163c0.023,0,0.045,0,0.068,0c1.248,0,2.495-0.41,3.743-0.412c0.505-0.001,0.699-0.53,0.703-1.033
			c0.005-0.517-0.007-0.757,0.004-1.274c0.007-0.336-0.108-0.28-0.425-0.28c-5.057,0-10.115,0-15.172,0
			c-0.336,0-0.461-0.128-0.456,0.218c0.011,0.698,0.002,0.992,0.003,1.69c0.001,0.533,0.21,0.708,0.744,0.709
			c0.763,0.001,1.527-0.013,2.29-0.011c0.69,0.002,1.378,0.032,2.056,0.169c0.863,0.174,1.676,0.63,2.32,1.264
			c0.219,0.216,0.415,0.961,0.535,0.961c-0.117,0-0.206,0-0.295,0c-2.298,0-4.597,0-6.895,0c-0.588,0-0.722-0.232-0.722,0.364
			c0,0.484,0,0.969,0,1.453c0,0.571,0.145,1.183,0.716,1.183c2.389,0,4.777,0,7.166,0c0.09,0,0.179,0,0.28,0
			c-0.01,0-0.012-0.106-0.027-0.06c-0.219,0.703-0.628,1.133-1.216,1.573c-0.946,0.706-2.046,0.93-3.193,1.044
			c-1.015,0.101-2.034,0.021-3.051,0.036c-0.485,0.007-0.706,0.213-0.707,0.696c-0.002,0.657,0.009,1.309-0.005,1.965
			c-0.006,0.285,0.089,0.498,0.28,0.702c0.66,0.708,1.317,1.419,1.964,2.14c2.306,2.573,4.542,5.206,6.755,7.859
			c0.185,0.221,0.391,0.316,0.679,0.313c1.083-0.011,2.167-0.008,3.25-0.002c0.279,0.001,0.495-0.077,0.624-0.342
			c0.129-0.265,0.024-0.468-0.143-0.671c-2.608-3.168-5.216-6.335-8.002-9.35c-0.044-0.048-0.125-0.083-0.107-0.171
			c0.311-0.053,0.619-0.099,0.924-0.159c1.285-0.251,2.486-0.709,3.549-1.486c1.472-1.076,2.358-2.523,2.686-4.311
			c0.034-0.185,0.105-0.214,0.27-0.212c0.878,0.008,1.757,0.004,2.635,0.003c0.525-0.001,0.716-0.188,0.718-0.705
			c0.002-0.517,0.002-1.013,0-1.53C68.035,66.585,67.853,66.423,67.326,66.422z"/>
		<path fill="#423547" d="M59.996,0C26.861,0,0,26.861,0,59.996s26.861,59.996,59.996,59.996s59.996-26.861,59.996-59.996
			S93.131,0,59.996,0z M50.891,27.001l2.201,2.452l-1.498-5.578c12.303-4.651,17.658,0.037,17.658,0.037l-1.343,4.701l3.049-1.381
			c4.511,1.556,3.14,5.795,3.14,5.795s-7.802,9.002-8.513,9.646c-0.711-0.706-2.492-0.759-2.492-0.759l-0.432-1.002l-0.978,0.723
			c-2.811-0.836-7.314,0.9-7.314,0.9l-8.627-9.808C45.142,29.126,50.891,27.001,50.891,27.001z M87.758,86.245
			c-5.251,16.954-45.01,12.603-50.261,6.601c-7.051-4.801-6.001-12.903-6.001-12.903c5.101-26.106,23.48-33.832,23.48-33.832
			l-2.551,7.052l5.776-8.627l3.015,0.103l2.855,5.992l-1.085-5.681c0,0,2.417,0.337,5.027,2.494
			C70.624,49.601,93.009,69.292,87.758,86.245z"/>
	</g>
	<g>
		<path fill="#341642" d="M67.326,66.422c-0.886-0.002-1.773,0.036-2.659,0.048c-0.198,0.003-0.287,0.191-0.331-0.011
			c-0.153-0.719-0.443-1.678-0.846-1.678c-0.057,0-0.115,0-0.17,0c-0.041,0,0.026-0.211,0.06-0.163
			c0.04,0.056,0.072,0.163,0.11,0.163c0.023,0,0.045,0,0.068,0c1.248,0,2.495-0.41,3.743-0.412c0.505-0.001,0.699-0.53,0.703-1.033
			c0.005-0.517-0.007-0.757,0.004-1.274c0.007-0.336-0.108-0.28-0.425-0.28c-5.057,0-10.115,0-15.172,0
			c-0.336,0-0.461-0.128-0.456,0.218c0.011,0.698,0.002,0.992,0.003,1.69c0.001,0.533,0.21,0.708,0.744,0.709
			c0.763,0.001,1.527-0.013,2.29-0.011c0.69,0.002,1.378,0.032,2.056,0.169c0.863,0.174,1.676,0.63,2.32,1.264
			c0.219,0.216,0.415,0.961,0.535,0.961c-0.117,0-0.206,0-0.295,0c-2.298,0-4.597,0-6.895,0c-0.588,0-0.722-0.232-0.722,0.364
			c0,0.484,0,0.969,0,1.453c0,0.571,0.145,1.183,0.716,1.183c2.389,0,4.777,0,7.166,0c0.09,0,0.179,0,0.28,0
			c-0.01,0-0.012-0.106-0.027-0.06c-0.219,0.703-0.628,1.133-1.216,1.573c-0.946,0.706-2.046,0.93-3.193,1.044
			c-1.015,0.101-2.034,0.021-3.051,0.036c-0.485,0.007-0.706,0.213-0.707,0.696c-0.002,0.657,0.009,1.309-0.005,1.965
			c-0.006,0.285,0.089,0.498,0.28,0.702c0.66,0.708,1.317,1.419,1.964,2.14c2.306,2.573,4.542,5.206,6.755,7.859
			c0.185,0.221,0.391,0.316,0.679,0.313c1.083-0.011,2.167-0.008,3.25-0.002c0.279,0.001,0.495-0.077,0.624-0.342
			c0.129-0.265,0.024-0.468-0.143-0.671c-2.608-3.168-5.216-6.335-8.002-9.35c-0.044-0.048-0.125-0.083-0.107-0.171
			c0.311-0.053,0.619-0.099,0.924-0.159c1.285-0.251,2.486-0.709,3.549-1.486c1.472-1.076,2.358-2.523,2.686-4.311
			c0.034-0.185,0.105-0.214,0.27-0.212c0.878,0.008,1.757,0.004,2.635,0.003c0.525-0.001,0.716-0.188,0.718-0.705
			c0.002-0.517,0.002-1.013,0-1.53C68.035,66.585,67.853,66.423,67.326,66.422z"/>
		<path fill="#341642" d="M59.996,0C26.861,0,0,26.861,0,59.996s26.861,59.996,59.996,59.996s59.996-26.861,59.996-59.996
			S93.131,0,59.996,0z M50.891,27.001l2.201,2.452l-1.498-5.578c12.303-4.651,17.658,0.037,17.658,0.037l-1.343,4.701l3.049-1.381
			c4.511,1.556,3.14,5.795,3.14,5.795s-7.802,9.002-8.513,9.646c-0.711-0.706-2.492-0.759-2.492-0.759l-0.432-1.002l-0.978,0.723
			c-2.811-0.836-7.314,0.9-7.314,0.9l-8.627-9.808C45.142,29.126,50.891,27.001,50.891,27.001z M87.758,86.245
			c-5.251,16.954-45.01,12.603-50.261,6.601c-7.051-4.801-6.001-12.903-6.001-12.903c5.101-26.106,23.48-33.832,23.48-33.832
			l-2.551,7.052l5.776-8.627l3.015,0.103l2.855,5.992l-1.085-5.681c0,0,2.417,0.337,5.027,2.494
			C70.624,49.601,93.009,69.292,87.758,86.245z"/>
	</g>
</g>
</svg>
