<?xml version="1.0" encoding="utf-8"?>
<!-- Generator: Adobe Illustrator 17.0.0, SVG Export Plug-In . SVG Version: 6.00 Build 0)  -->
<!DOCTYPE svg PUBLIC "-//W3C//DTD SVG 1.1//EN" "http://www.w3.org/Graphics/SVG/1.1/DTD/svg11.dtd">
<svg version="1.1" id="Layer_1" xmlns="http://www.w3.org/2000/svg" xmlns:xlink="http://www.w3.org/1999/xlink" x="0px" y="0px"
	 width="119.993px" height="119.993px" viewBox="0 0 119.993 119.993" enable-background="new 0 0 119.993 119.993"
	 xml:space="preserve">
<g>
	<path fill="#341642" d="M59.996,0C26.861,0,0,26.861,0,59.996c0,33.135,26.861,59.996,59.996,59.996
		c33.135,0,59.996-26.861,59.996-59.996C119.993,26.861,93.131,0,59.996,0z M47.696,26.091c0.303-1.283,0.623-1.461,1.894-1.014
		c0.232,0.081,0.49,0.086,0.736,0.126c-0.005-0.901,0.005-1.803-0.02-2.704c-0.013-0.464,0.113-0.755,0.539-1.042
		c0.893-0.602,1.517-0.688,2.094,0.419c0.638,1.226,1.684,2.164,2.619,3.164c0.453,0.485,0.337,0.683-0.117,1.071
		c-1.381,1.182-3.143,0.991-4.732,1.415c-0.371,0.099-0.395-0.222-0.397-0.484c-0.003-0.429,0.008-0.858,0.013-1.287
		c-0.898,0.298-1.17,1.303-1.992,1.751C48.041,27.069,47.537,26.763,47.696,26.091z M7.957,54.621
		c-0.085,0.519-0.17,1.038-0.255,1.556c-0.045,0.813,0.222,1.646-0.153,2.439l0,0c-0.037,0.297-0.075,0.593-0.112,0.89
		c-0.081,0.278-0.162,0.556-0.243,0.835c-0.202-0.733-0.307-1.452-0.015-2.166c0.031-0.487,0.063-0.973,0.094-1.46
		c-0.044-0.392-0.004-0.771,0.177-1.128c0,0,0,0,0,0c0.036-0.599-0.06-1.218,0.272-1.772l0,0c0.023-0.236,0.047-0.471,0.07-0.707
		c0.054-0.728,0.136-1.45,0.45-2.123c1.222-6.319,3.736-12.11,7.173-17.521c0.504-0.794,1.082-1.541,1.626-2.309
		c0.103-0.263,0.251-0.678,0.548-0.451c0.297,0.227-0.032,0.557-0.24,0.793c-0.185,0.802,0.081,1.501,0.417,2.223
		c1.007,2.168,1.027,3.436-1.195,4.772c-1.201,0.722-2.448,1.448-3.375,2.557c-0.295,0.353-0.63,0.691-0.725,1.239
		c0.626,0.008,1.034-0.645,1.875-0.482c-1.995,3.381-3.937,6.673-5.878,9.965c-0.298,0.689-0.008,1.491-0.415,2.159l0,0
		C8.021,54.161,7.989,54.391,7.957,54.621z M28.634,92.224c-0.367,1.051-0.683,2.12-1.058,3.168c-0.461,1.288-0.7,2.555,0.005,3.845
		c0.272,0.497,0.071,0.838-0.409,1.156c-1.585,1.048-3.07,0.938-4.412-0.407c-6.847-6.868-11.569-14.96-14.028-24.356
		c-0.108-0.412-0.247-0.816-0.387-1.276c0.331-0.164,0.56-0.069,0.766,0.103c1.79,1.494,3.972,2.364,5.867,3.673
		c1.484,1.025,2.792,2.358,3.39,4.104c1.003,2.928,3.067,4.417,5.951,5.262c1.426,0.418,2.746,1.385,3.942,2.324
		C28.924,90.338,28.943,91.341,28.634,92.224z M32.784,20.183c-1.406,1.484-2.64,3.222-4.633,4.075
		c-0.644,0.276-1.222,0.31-1.829-0.05c-0.495-0.294-1.022-0.356-1.606-0.266c-0.88,0.135-0.815-0.364-0.503-0.913
		c0.123-0.217,0.326-0.395,0.515-0.566c4.598-4.144,9.764-7.386,15.488-9.741c0.144-0.059,0.3-0.088,0.657-0.191
		c-0.309,0.727-0.621,1.162-1.094,1.361C36.711,15.184,34.954,17.892,32.784,20.183z M97.553,87.46
		c-0.518,3.301-1.179,6.546-4.207,8.629c-0.343,0.236-0.636,0.725-1.089,0.547c-0.474-0.186-0.538-0.738-0.618-1.205
		c-0.105-0.616,0.051-1.199,0.29-1.756c0.542-1.262,1.088-2.518,1.266-3.899c0.086-0.671,0.575-1.103,1.132-1.307
		c1.371-0.502,2.076-1.565,2.633-2.802c0.118-0.263,0.289-0.503,0.472-0.816C97.865,85.776,97.683,86.633,97.553,87.46z
		 M97.861,70.133c-1.542,2.113-2.999,4.28-4.872,6.154c-1.458,1.459-2.384,3.386-3.031,5.316c-0.323,0.963,0.033,2.221,0.29,3.296
		c0.476,1.993-0.261,3.528-1.572,4.898c-0.773,0.807-1.517,1.635-2.25,2.479c-1.152,1.325-1.909,2.714-1.494,4.53
		c0.121,0.528-0.137,0.863-0.556,1.183c-1.391,1.065-2.658,2.202-3.734,3.661c-1.156,1.567-3.171,2.178-5.026,2.701
		c-1.435,0.404-2.968,0.453-4.45,0.704c-0.521,0.088-0.752-0.048-0.677-0.568c0.437-3.018-0.983-5.591-1.958-8.273
		c-0.212-0.582-0.58-1.05-1.012-1.474c-1.394-1.371-1.562-2.981-0.937-4.748c0.086-0.243,0.152-0.497,0.273-0.721
		c0.966-1.79,1.35-3.591,0.242-5.481c-0.165-0.282-0.233-0.664-0.225-0.997c0.041-1.592-0.54-2.814-1.946-3.639
		c-0.487-0.286-0.916-0.756-0.869-1.355c0.133-1.693-0.512-3.319-0.385-5c0.066-0.875-0.347-1.089-1.086-0.897
		c-0.621,0.161-1.232,0.367-1.838,0.582c-1.084,0.384-1.883-0.005-2.034-1.079c-0.186-1.33-0.903-1.18-1.709-0.803
		c-1.986,0.929-4.018,1.671-6.157,2.2c-1.26,0.311-2.139,0.201-3.162-0.652c-1.943-1.62-4.071-2.999-5.52-5.167
		c-1.597-2.392-3.237-4.731-2.474-7.35c0.08-1.699-0.089-2.916,0.291-4.088c0.507-1.562,0.99-3.252,2.516-4.062
		c2.541-1.349,4.135-3.449,5.447-5.892c0.789-1.47,1.791-2.426,3.792-2.153c1.6,0.219,3.159-0.66,4.654-1.325
		c1.492-0.663,3.002-1.028,4.59-0.33c0.763,0.336,1.529,0.153,2.28-0.02c0.812-0.187,1.299,0.007,1.447,0.897
		c0.106,0.632,0.416,1.241,0.457,1.871c0.093,1.413,0.977,2.059,2.178,2.35c2.396,0.581,4.812,1.063,7.137-0.279
		c0.352-0.203,0.68-0.135,0.979,0.024c1.198,0.632,2.508,0.878,3.814,1.104c5.098,0.88,7.844,4.248,8.984,8.944
		c1.085,4.47,4.324,7.55,6.584,11.26c0.185,0.304,0.42,0.384,0.757,0.304c0.333-0.08,0.675-0.173,1.013-0.173
		c0.658,0.001,1.563-0.681,1.885-0.065C98.81,68.596,98.314,69.512,97.861,70.133z M111.597,59.904
		c-1.841-3.377-4.689-5.606-8.462-6.501c-0.942-0.223-1.609-0.759-2.313-1.309c-0.87-0.68-1.69-1.448-3.04-1.611
		c0.542,1.265,1.244,2.308,1.755,3.441c0.303,0.673,1.197,0.754,1.905,0.942c0.531,0.141,1.212-0.274,1.592,0.217
		c0.679,0.878,1.278,1.829,1.819,2.8c0.26,0.466-0.214,0.803-0.547,1.042c-2.121,1.527-4.155,3.19-6.538,4.321
		c-0.629,0.299-1.28,0.494-1.98,0.507c-1.029,0.019-1.81-0.358-1.912-1.47c-0.125-1.355-0.838-2.413-1.562-3.478
		c-2.405-3.538-4.816-7.072-7.284-10.693c1.827,0.131,1.424-1.044,1.252-2.094c-0.14-0.853-0.131-1.708,0.091-2.87
		c-0.864,0.53-1.533,0.917-2.177,1.343c-0.441,0.292-0.856,0.449-1.231-0.048c-0.98-1.3-2.086-2.512-2.753-4.03
		c-0.416-0.946-0.194-1.534,0.708-2.133c1.974-1.312,4.103-1.367,6.318-1.112c0.555,0.064,1.108,0.175,1.663,0.18
		c0.451,0.004,1.064,0.394,1.29-0.392c0.203-0.704,0.018-1.265-0.607-1.671c-1.012-0.657-2.064-1.217-3.32-1.324
		c0.211-0.743,0.938-1.014,1.302-1.583c-1.685-0.643-1.692-0.636-3.208,0.06c-0.623,0.286-1.266,0.53-1.897,0.798
		c-1.74,0.739-2.217,1.424-2.168,3.297c0.016,0.611-0.198,0.919-0.735,1.185c-1.157,0.573-2.352,0.76-3.624,0.63
		c-0.792-0.081-1.595-0.112-1.608,1.201c-1.34-1.382-1.191-3.467-2.983-4.305c-1.505-0.703-2.911-1.621-4.409-2.471
		c-0.316,1.137,0.081,1.859,0.805,2.584c0.946,0.946,2.127,1.711,2.709,3.047c-0.629,0.3-1.24,0.168-1.822,0.242
		c-0.502,0.064-0.743-0.154-0.672-0.652c0.099-0.69-0.208-1.059-0.869-1.148c-0.987-0.133-1.18-1.168-1.897-1.637
		c-1.422-0.93-3.355-0.823-4.873-0.062c-2.344,1.174-4.085,2.886-5.486,5.036c-0.672,1.031-1.661,1.371-2.883,1.343
		c-1.225-0.028-2.367-0.388-3.537-0.643c-0.406-0.089-0.645-0.274-0.658-0.779c-0.042-1.636,0.121-3.257,0.251-4.882
		c0.048-0.606,0.492-0.516,0.818-0.591c1.003-0.229,2.012-0.451,3.03-0.595c0.924-0.13,1.565-0.614,2.117-1.32
		c0.455-0.581,0.796-1.014,0.267-1.854c-0.59-0.938-0.035-1.791,0.952-2.128c2.689-0.918,4.975-2.395,6.999-4.4
		c1.353-1.34,2.163-1.229,3.601-0.027c0.297,0.248,0.598,0.491,0.903,0.728c1.813,1.41,2.397,1.408,4.254-0.012
		c0.904-0.691,1.023-2.207,0.288-3.775c-0.195-0.416-0.414-0.822-0.711-1.406c-0.647,0.957-1.217,1.794-1.779,2.637
		c-0.264,0.396-0.304,1.094-1.041,0.868c-0.859-0.263-1.96,0.049-2.495-1.012c-0.058-0.115-0.099-0.237-0.147-0.356
		c-0.891-2.216-0.897-2.254-3.254-1.859c-0.8,0.134-0.947-0.037-0.707-0.762c0.49-1.475,1.339-2.492,2.939-2.928
		c1.856-0.506,3.596-1.382,5.465-1.889c1.1-0.299,2.152-0.456,3.288-0.183c2.471,0.592,4.959,0.133,7.441,0.015
		c1.694-0.081,3.118,0.178,3.84,2.098c0.489,1.301,2.499,1.762,3.686,0.951c0.766-0.523,1.273-0.347,1.933,0.105
		c13.335,9.129,21.344,21.599,23.664,37.648c0.454,3.142,0.59,6.295,0.101,9.497C112.846,63.077,112.406,61.389,111.597,59.904z"/>
	<path fill="#341642" d="M49.985,25.754c0-0.183,0-0.367,0-0.55C49.985,25.387,49.985,25.571,49.985,25.754z"/>
	<path fill="#341642" d="M8.469,51.772c-0.273-0.205-0.138-0.527-0.227-0.785C8.206,51.28,7.886,51.657,8.469,51.772z"/>
	<path fill="#341642" d="M7.45,55.588L7.45,55.588c0.084,0.197,0.168,0.393,0.252,0.589C7.564,56.004,7.7,55.714,7.45,55.588z"/>
	<path fill="#341642" d="M7.273,56.716c0.299,0.604-0.163,1.318,0.276,1.901c0,0,0,0,0,0C7.365,57.996,7.723,57.297,7.273,56.716z"
		/>
	<path fill="#341642" d="M7.179,58.176c0.042,0.452-0.423,1.003,0.258,1.331C7.058,59.12,7.338,58.605,7.179,58.176z"/>
	<path fill="#341642" d="M7.792,53.109c0.207,0.236-0.055,0.621,0.262,0.822v0C7.953,53.661,8.088,53.317,7.792,53.109z"/>
	<path fill="#341642" d="M7.722,53.817c0.085,0.266-0.028,0.59,0.235,0.805C7.779,54.382,8.008,54.024,7.722,53.817L7.722,53.817z"
		/>
	<path fill="#341642" d="M17.041,31.156c0.103,0.114,0.206,0.228,0.308,0.343C17.471,31.183,17.314,31.117,17.041,31.156z"/>
</g>
</svg>
