<?xml version="1.0" encoding="utf-8"?>
<!-- Generator: Adobe Illustrator 17.0.0, SVG Export Plug-In . SVG Version: 6.00 Build 0)  -->
<!DOCTYPE svg PUBLIC "-//W3C//DTD SVG 1.1//EN" "http://www.w3.org/Graphics/SVG/1.1/DTD/svg11.dtd">
<svg version="1.1" id="Layer_1" xmlns="http://www.w3.org/2000/svg" xmlns:xlink="http://www.w3.org/1999/xlink" x="0px" y="0px"
	 width="23.978px" height="23.976px" viewBox="0 0 23.978 23.976" enable-background="new 0 0 23.978 23.976" xml:space="preserve">
<rect x="-56.521" y="-108.119" display="none" fill-rule="evenodd" clip-rule="evenodd" fill="#F9F9F9" width="287.997" height="287.999"/>
<g>
	<g>
		<path fill="#FD3832" d="M23.39,8.283c1.605,4.939-0.153,10.351-4.355,13.403c-4.202,3.053-9.891,3.053-14.093,0
			c-4.202-3.053-5.96-8.464-4.355-13.403S6.796,0,11.989,0C17.182,0,21.785,3.344,23.39,8.283z M11.989,1.08
			c-4.726,0-8.914,3.043-10.374,7.537c-1.46,4.494,0.139,9.418,3.962,12.195c3.823,2.778,9,2.778,12.823,0
			c3.823-2.777,5.423-7.701,3.962-12.195C20.903,4.123,16.715,1.08,11.989,1.08z"/>
	</g>
	<g>
		<path fill-rule="evenodd" clip-rule="evenodd" fill="#FD3832" d="M7.95,15.344c-0.384-0.126-0.642-0.377-0.781-0.758
			c-0.338-0.93-0.438-4.818,0.213-5.584C7.605,8.74,7.891,8.586,8.232,8.55c1.754-0.188,7.174-0.162,7.799,0.064
			c0.366,0.132,0.626,0.371,0.767,0.737c0.37,0.961,0.383,4.457-0.048,5.383c-0.118,0.251-0.308,0.429-0.55,0.555
			C15.545,15.632,8.811,15.627,7.95,15.344z M10.736,13.521c1.055-0.547,2.1-1.089,3.159-1.638c-1.06-0.554-2.106-1.099-3.159-1.648
			C10.736,11.334,10.736,12.421,10.736,13.521z"/>
	</g>
</g>
</svg>
