<svg id="Layer_1" data-name="Layer 1" xmlns="http://www.w3.org/2000/svg" viewBox="0 0 93.98 71.62"><defs><style>.cls-1{fill:#fff;}</style></defs><title>Injection</title><path class="cls-1" d="M57.88,492.39c0,9.54,0,19.26,0,29,0,4.43,1.15,5.56,5.55,5.56q41.39,0,82.78,0c4.7,0,5.57-.94,5.58-5.83q0-12.74,0-25.47c0-1.21-.12-2.42-.16-3.16H109v7.26l7.5.44v7.73l-7.58.47-.35,7.57h-7.52l-.4-7.58-7.36-.51v-8.07h7.27v-7.39Zm46.9-1.74c13.87,0,27.74,0,41.61,0,4.26,0,5.37-1.13,5.41-5.31,0-3.62.07-7.25,0-10.87s-1.28-4.73-4.8-4.74q-42,0-84,0c-3.81,0-5.06,1.36-5.12,5.27,0,3.25,0,6.5,0,9.75,0,4.75,1.21,5.91,6,5.92Q84.34,490.67,104.77,490.65ZM95.35,461h19.17l.3,6.25H120c0-2.92.07-5.53,0-8.13a3.57,3.57,0,0,0-3.83-3.75q-11.23-.12-22.47,0A3.44,3.44,0,0,0,90,458.84c-.16,2.81,0,5.64,0,8.49H95Z" transform="translate(-57.86 -455.31)"/><path d="M57.88,492.39h42.72v7.39H93.32v8.07l7.36.51.4,7.58h7.52l.35-7.57,7.58-.47v-7.73l-7.5-.44v-7.26h42.6c0,.74.16,1.95.16,3.16q0,12.74,0,25.47c0,4.89-.88,5.83-5.58,5.83q-41.39,0-82.78,0c-4.4,0-5.54-1.14-5.55-5.56C57.85,511.65,57.88,501.93,57.88,492.39Z" transform="translate(-57.86 -455.31)"/><path d="M104.77,490.66q-20.43,0-40.86,0c-4.82,0-6-1.17-6-5.92,0-3.25,0-6.5,0-9.75.06-3.91,1.31-5.27,5.12-5.27q42,0,84,0c3.52,0,4.72,1.23,4.8,4.74s.06,7.25,0,10.87c0,4.18-1.15,5.3-5.41,5.31C132.51,490.68,118.64,490.65,104.77,490.66Z" transform="translate(-57.86 -455.31)"/><path d="M95.35,461,95,467.33h-5.1c0-2.85-.12-5.68,0-8.49a3.44,3.44,0,0,1,3.69-3.48q11.23-.1,22.47,0a3.57,3.57,0,0,1,3.83,3.75c.1,2.6,0,5.2,0,8.13h-5.14l-.3-6.25Z" transform="translate(-57.86 -455.31)"/></svg>