<svg id="Layer_1" data-name="Layer 1" xmlns="http://www.w3.org/2000/svg" viewBox="0 0 699.93 700"><defs><style>.cls-1{fill:#fff;}</style></defs><title>India</title><path class="cls-1" d="M156,47H656.93V747H188c5.26-2.36,8.09-6.39,9.19-12.09,1.29-6.67,4.93-11.12,12.47-11.32A33.68,33.68,0,0,0,218,722c1.58-.46,2.95-1.64,5-2.83-6.18-4.94-3.47-9.52-.74-14.08,2-3.35,3.89-6.81,6.2-9.94.68-.93,2.63-1.27,4-1.26,1.8,0,3.57.74,5.39,1,3.45.42,5.58-.87,5.3-4.67-.47-6.47-.16-13.16-1.75-19.35-2-7.92-.92-14.27,4.78-20.11,7.57-7.76,6.27-18.19,8-27.72.93-5-3.62-6.67-5.21-10.08,0-.1.1-.28.31-.8l4.24,2.16c-.16-2.59-.19-4.35-.38-6.1-1.07-9.64-2.21-19.27-3.26-28.91a12.89,12.89,0,0,1,.15-4c1.7-8.08,9.59-18.28,19.7-11.79,1-1.26,2.41-2.38,3.09-3.84,3-6.45,8.46-8.81,15-9.69a27.89,27.89,0,0,0,7.21-1.85c7-3,8.63-8.84,4-15.45a83.84,83.84,0,0,1,7.65-5.28c8.31-4.53,17.07-8.32,22.69-16.61,1.13-1.66,3.3-2.86,5.24-3.68,9.38-4,15.55-11.29,20.56-19.65,2.85-4.76,6.15-8.52,11.41-10.62,2.2-.88,4-2.76,6-4.19l-.74-1.3-4.15.51c1.89-4.73,5-5.94,8.94-4.15a9.17,9.17,0,0,0,4.41.48,43.63,43.63,0,0,0,8.32-1.27,11.2,11.2,0,0,0,4.86-3,69.73,69.73,0,0,0,7-8.8c1.11-1.65,1.41-3.84,2.13-5.76s.94-4.61,2.16-5.12c4.1-1.69,3.86-3.58,1.75-6.79-3.09-4.68-2.47-7.42,2.32-10.36a22,22,0,0,1,8.21-3.32c5.59-.74,8.66-3.61,10-8.92a75.92,75.92,0,0,1,2.63-7.16c1.15,3.34,1.89,5.17,2.41,7.05,2,7.36,4.27,8.11,9.49,3.66l8.87,5.21,1.76-1c-.37-3.11-.58-6.26-1.14-9.34-1.5-8.16-3.06-16.31-4.8-24.42a64,64,0,0,0-2.7-8.07c-1.8-5-7.86-9.23-2-15.59,2.12-2.32.45-5.1-2.66-6.15-1.89-.64-3.9-.9-5.79-1.54-4-1.36-4.74-5-4.94-8.47-.09-1.68.73-4.43,1.93-5,2.82-1.29,5.56-2,6.76-5.45.33-1,2.48-1.43,3.89-1.8a46.43,46.43,0,0,1,5.26-.79l.76-1.61c-5.29-3.72-10.18-8.33-16-10.88-4.94-2.17-3.76-4.36-2.27-7.5,2.09-4.39,4.22-8.77,6.72-14l4.19,9.6,5.41,1.22-.91-7.95c6.14,3.84,7.07,11.86,14.83,10.71l1.22-6.29,1.69-.69c1.48,2.44,3.42,4.73,4.34,7.36,1.52,4.38,2,9.15,3.69,13.45.85,2.18,3.36,5.22,5.18,5.27a333.42,333.42,0,0,0,34.25-.63,22.22,22.22,0,0,1,14.76,3.72c-2.28,2.74-4.93,4.79-6,7.47-4,9.62-9.4,13.67-20.07,13.45-.66,3.74-2,7.65-1.82,11.47.21,3.49,1.28,8.66,3.6,9.81,2.49,1.24,3.71,2.3,4.55,4.59a44.66,44.66,0,0,0,2.17,4c2-4.42,4.49-7.54,4.71-10.81.39-6,3.41-9.1,8.51-11.35a11.1,11.1,0,0,1,.85,1.82c1.68,6.45,3.3,12.92,5,19.37.16.59.76,1,1.07,1.61,1.43,2.56,3.39,5,4.11,7.74.86,3.32.66,6.91.89,10l8.86-1.6c0-3.52.14-7.43,0-11.33-.22-4.92.49-9.25,3.37-13.66,3.53-5.4,3.67-11.6.43-17.6a49.93,49.93,0,0,1-2.35-6.05,36.89,36.89,0,0,1,9.21,3.92c5.9,3.21,7.16,2.75,9.74-3.29,2.8-6.56,5.79-13,8.43-19.66.6-1.51.8-3.89,0-5.13-3.14-5-.92-8.06,2.47-11.78a25.84,25.84,0,0,0,5.69-10.6c1-4.09.21-8.62.82-12.88a11.14,11.14,0,0,1,3.15-6c2.83-2.71,6.29-4.75,9.34-7.25,3.33-2.74,6.23-6.08,9.79-8.47,6.42-4.3,8.67-3.76,14,2a8.39,8.39,0,0,0,1.77,1.14A10.48,10.48,0,0,0,615,273.1c-2.53-4-1.44-7.33,1.75-10.21a20.6,20.6,0,0,1,3.87-2.18c4.29-2.41,1.75-5.92,1.13-8.85-.66-3.12-2.83-2-5.1-1.33-2.12.64-4.59,0-6.86.25-2.65.34-5.25,1.11-7.87,1.67-1,.21-2,.38-3,.56.07-1.06-.17-2.28.28-3.14,1.17-2.19,3.33-4.07,3.83-6.35.64-2.89,0-6.06,0-9.11-2.15.57-4.29,1.16-6.45,1.71a3,3,0,0,1-1-.09l-1-1.06,5.66-4.7c-2.85-1.05-5.54-1.53-7.62-2.91-5.44-3.61-5.9-3.66-9.52,2.07-1,1.55-1.73,3.24-2.8,4.72-.62.86-1.74,2.06-2.53,2-3.57-.37-7.58-.29-10.55-1.94-5.12-2.84-8.88-1.56-12.56,2a98.15,98.15,0,0,0-8,8.19c-2.17,2.64-4.39,4.13-8,4-1.78-.06-4.92,1.29-5.2,2.51-1.65,7.2-11.69,8-11.9,16,0,.22-.46.56-.75.61-5.67,1.12-11.33,2.3-17,3.17-.68.1-1.7-1.39-2.42-2.26-4.17-5-8.21-5.62-12.27-2.34l-14.93-1.37c.7-4.91-2.31-7-7.14-5.32-9.81,3.32-18,8.63-22.08,18.78-1,2.45-2.72,4.6-4.11,6.89l-2.12-.52c0-2.25.15-4.51,0-6.74-.26-3,.18-7.76-1.43-8.67-2.27-1.28-6.22,0-9.26.79-1.2.33-2.24,2.37-2.74,3.84a15.58,15.58,0,0,0-.83,5.87c.3,4.68,0,9.72,1.66,13.92,2.82,7.11,1.75,11-5.82,12.47-4.11.81-8.71,1.34-12.64.3-5.45-1.45-10.65-3.32-16.39-2.22-.21,0-.49-.49-.78-.57a49,49,0,0,0-5.63-1.42c-4-.6-9.18,2.56-11.17-4-.2-.68-2.92-1.12-4.31-.83-5.45,1.11-15.94-3.62-18.41-8.57-1.77-3.56-11.17-7.63-13.78-5.24-2.93,2.68-4.49.75-6.87-.09s-4.85-.76-7.3-1a43.47,43.47,0,0,1-4.75-.41c-5.3-1.2-8.85-7.66-15.47-5.15-.48.18-1.54-.63-2.08-1.21-2.59-2.77-5.37-4.94-9.52-4.45A2.54,2.54,0,0,1,289.1,270c-1.86-4-6.45-4.65-9.32-7.78-3.5-3.83-9.65-5.21-14.61-7.74a37.64,37.64,0,0,1-7.58-4.5c-.49-.42,1.2-3.26,1.73-5,.62-2.05,1.1-4.15,1.6-6.23,2-8.23,4.92-15.74,15.28-19.74-4.9-3.15-8.86-5.62-12.73-8.22a18.73,18.73,0,0,1-3.57-3.14c-2.52-2.86-4.86-5.87-7.4-8.71a2.84,2.84,0,0,0-2.29-.73c-5.21,1.09-7.87-2-10.53-5.73-.95-1.34-3.54-2.77-4.83-2.37-4.78,1.49-6.45.88-5.92-4.06.64-5.95-.92-11.07-3.38-16.31a16.43,16.43,0,0,1-1.25-8.18c.15-1.55,2-3.51,3.52-4.14.8-.33,2.87,1.65,3.91,3a53.38,53.38,0,0,1,3.73,6.25c1.07-1.85,1.47-3.58,2.42-4,5.06-2.17,9.07-4.5,4.24-10.55,2.65-5.24-1.68-5.86-4.74-7.78-1.57-1-3.51-4.47-3-5.07,2.56-3.27,1.57-6.15.35-9.38-.52-1.38-.31-3-.45-4.85a15.92,15.92,0,0,1,2.63.16c8.13,2.26,8.54,1.89,9.83-6.28.23-1.44,2-2.72,3.23-3.9,2.29-2.21,5.23-3.94,6.92-6.52s2.63-6.08,3.45-9.28,1.71-6.58,1.32-9.73c-.22-1.76-2.71-3.95-4.65-4.65-4.2-1.53-8.69-2.23-12.72-3.19-4.07.68-8.18,1.35-12.29,2.08a43.83,43.83,0,0,0-6.7,1.37c-6.06,2.09-12,4.63-18.09,6.5-2.78.85-5.79-.39-5.65-3.83s-1.09-4.84-4.13-5.67a4.09,4.09,0,0,1-2.25-2.44c-3.36-10.31-11.76-15.15-20.59-19.86a17.15,17.15,0,0,1-6.72-7.43c-1.43-3-3.05-3.83-6-3.89C159.86,48.43,157.93,47.52,156,47Z" transform="translate(43 -47)"/><path d="M156,47c1.93.52,3.86,1.43,5.81,1.46,3,.06,4.62.92,6,3.89a17.15,17.15,0,0,0,6.72,7.43c8.84,4.71,17.23,9.55,20.59,19.86a4.09,4.09,0,0,0,2.25,2.44c3,.83,4.27,2.27,4.13,5.67s2.87,4.68,5.65,3.83c6.12-1.87,12-4.42,18.09-6.5A43.83,43.83,0,0,1,232,83.7c4.11-.72,8.23-1.39,12.29-2.08,4,1,8.53,1.66,12.72,3.19,1.94.71,4.43,2.89,4.65,4.65.39,3.15-.51,6.55-1.32,9.73s-1.68,6.59-3.45,9.28-4.63,4.31-6.92,6.52c-1.23,1.18-3,2.46-3.23,3.9-1.29,8.17-1.7,8.54-9.83,6.28a15.92,15.92,0,0,0-2.63-.16c.14,1.82-.07,3.47.45,4.85,1.22,3.23,2.21,6.11-.35,9.38-.47.6,1.47,4.09,3,5.07,3.06,1.92,7.39,2.54,4.74,7.78,4.82,6,.82,8.38-4.24,10.55-1,.41-1.35,2.14-2.42,4a53.38,53.38,0,0,0-3.73-6.25c-1-1.3-3.11-3.28-3.91-3-1.54.63-3.37,2.59-3.52,4.14a16.43,16.43,0,0,0,1.25,8.18c2.46,5.24,4,10.36,3.38,16.31-.54,4.95,1.14,5.55,5.92,4.06,1.29-.4,3.88,1,4.83,2.37,2.66,3.75,5.32,6.82,10.53,5.73a2.84,2.84,0,0,1,2.29.73c2.54,2.84,4.88,5.85,7.4,8.71a18.73,18.73,0,0,0,3.57,3.14c3.87,2.6,7.83,5.07,12.73,8.22-10.36,4-13.32,11.52-15.28,19.74-.5,2.09-1,4.18-1.6,6.23-.53,1.77-2.22,4.61-1.73,5a37.64,37.64,0,0,0,7.58,4.5c5,2.53,11.11,3.91,14.61,7.74,2.87,3.13,7.45,3.79,9.32,7.78a2.54,2.54,0,0,0,2.06,1.12c4.14-.49,6.93,1.67,9.52,4.45.54.58,1.6,1.4,2.08,1.21,6.62-2.51,10.17,3.95,15.47,5.15a43.47,43.47,0,0,0,4.75.41c2.45.27,5,.23,7.3,1s3.95,2.77,6.87.09c2.61-2.39,12,1.67,13.78,5.24,2.46,5,13,9.69,18.41,8.57,1.38-.28,4.1.15,4.31.83,2,6.6,7.2,3.45,11.17,4a49,49,0,0,1,5.63,1.42c.3.08.57.61.78.57,5.74-1.1,10.94.77,16.39,2.22,3.93,1,8.53.51,12.64-.3,7.56-1.49,8.63-5.37,5.82-12.47-1.67-4.21-1.35-9.24-1.66-13.92a15.58,15.58,0,0,1,.83-5.87c.5-1.47,1.54-3.51,2.74-3.84,3-.84,7-2.07,9.26-.79,1.61.91,1.17,5.63,1.43,8.67.19,2.23,0,4.49,0,6.74l2.12.52c1.39-2.29,3.12-4.44,4.11-6.89,4.11-10.15,12.27-15.46,22.08-18.78,4.82-1.63,7.84.41,7.14,5.32l14.93,1.37c4.06-3.28,8.09-2.7,12.27,2.34.72.87,1.74,2.36,2.42,2.26,5.7-.88,11.36-2.06,17-3.17.29-.06.74-.39.75-.61.22-8,10.25-8.85,11.9-16,.28-1.23,3.42-2.57,5.2-2.51,3.63.12,5.86-1.37,8-4a98.15,98.15,0,0,1,8-8.19c3.69-3.55,7.44-4.83,12.56-2,3,1.65,7,1.57,10.55,1.94.78.08,1.9-1.12,2.53-2,1.07-1.47,1.82-3.17,2.8-4.72,3.62-5.73,4.08-5.68,9.52-2.07,2.08,1.38,4.77,1.86,7.62,2.91l-5.66,4.7,1,1.06a3,3,0,0,0,1,.09c2.16-.55,4.3-1.13,6.45-1.71.07,3,.68,6.22,0,9.11-.5,2.28-2.66,4.16-3.83,6.35-.46.85-.21,2.08-.28,3.14,1-.19,2-.35,3-.56,2.62-.56,5.22-1.33,7.87-1.67,2.27-.29,4.74.38,6.86-.25,2.28-.68,4.44-1.78,5.1,1.33.62,2.93,3.17,6.44-1.13,8.85a20.6,20.6,0,0,0-3.87,2.18c-3.19,2.88-4.28,6.23-1.75,10.21a10.48,10.48,0,0,1,1.76,5.64A8.39,8.39,0,0,1,615,277.6c-5.31-5.71-7.56-6.25-14-2-3.56,2.38-6.45,5.72-9.79,8.47-3,2.5-6.51,4.54-9.34,7.25a11.14,11.14,0,0,0-3.15,6c-.61,4.25.23,8.79-.82,12.88a25.84,25.84,0,0,1-5.69,10.6c-3.39,3.72-5.6,6.82-2.47,11.78.79,1.24.59,3.62,0,5.13-2.64,6.62-5.63,13.1-8.43,19.66-2.58,6-3.84,6.5-9.74,3.29a36.89,36.89,0,0,0-9.21-3.92,49.93,49.93,0,0,0,2.35,6.05c3.24,6,3.1,12.2-.43,17.6-2.88,4.4-3.59,8.74-3.37,13.66.17,3.9,0,7.81,0,11.33L532.1,407c-.23-3.06,0-6.66-.89-10-.72-2.75-2.68-5.18-4.11-7.74-.32-.56-.92-1-1.07-1.61-1.7-6.45-3.32-12.92-5-19.37a11.1,11.1,0,0,0-.85-1.82c-5.11,2.26-8.13,5.4-8.51,11.35-.21,3.27-2.69,6.39-4.71,10.81a44.66,44.66,0,0,1-2.17-4c-.84-2.29-2.05-3.35-4.55-4.59-2.32-1.15-3.39-6.32-3.6-9.81-.23-3.81,1.16-7.73,1.82-11.47,10.67.21,16.1-3.84,20.07-13.45,1.11-2.69,3.76-4.73,6-7.47a22.22,22.22,0,0,0-14.76-3.72,333.42,333.42,0,0,1-34.25.63c-1.82,0-4.32-3.09-5.18-5.27-1.69-4.3-2.16-9.07-3.69-13.45-.92-2.64-2.86-4.92-4.34-7.36l-1.69.69-1.22,6.29c-7.76,1.16-8.68-6.86-14.83-10.71l.91,7.95-5.41-1.22-4.19-9.6c-2.51,5.21-4.63,9.58-6.72,14-1.5,3.15-2.68,5.33,2.27,7.5,5.8,2.55,10.7,7.16,16,10.88l-.76,1.61a46.43,46.43,0,0,0-5.26.79c-1.4.37-3.56.85-3.89,1.8-1.2,3.43-3.95,4.16-6.76,5.45-1.2.55-2,3.29-1.93,5,.2,3.48.9,7.11,4.94,8.47,1.89.64,3.9.9,5.79,1.54,3.11,1.05,4.79,3.83,2.66,6.15-5.83,6.36.23,10.57,2,15.59a64,64,0,0,1,2.7,8.07c1.74,8.11,3.3,16.26,4.8,24.42.57,3.08.77,6.22,1.14,9.34l-1.76,1-8.87-5.21c-5.22,4.45-7.47,3.7-9.49-3.66-.52-1.89-1.26-3.71-2.41-7.05a75.92,75.92,0,0,0-2.63,7.16c-1.29,5.31-4.37,8.18-10,8.92a22,22,0,0,0-8.21,3.32c-4.79,2.94-5.4,5.67-2.32,10.36,2.11,3.21,2.35,5.09-1.75,6.79-1.22.5-1.5,3.33-2.16,5.12s-1,4.11-2.13,5.76a69.73,69.73,0,0,1-7,8.8,11.2,11.2,0,0,1-4.86,3,43.63,43.63,0,0,1-8.32,1.27,9.17,9.17,0,0,1-4.41-.48c-3.93-1.79-7.05-.58-8.94,4.15l4.15-.51.74,1.3c-2,1.43-3.77,3.31-6,4.19-5.26,2.1-8.56,5.85-11.41,10.62-5,8.36-11.18,15.7-20.56,19.65-1.94.82-4.11,2-5.24,3.68-5.63,8.29-14.38,12.08-22.69,16.61a83.84,83.84,0,0,0-7.65,5.28c4.59,6.61,2.93,12.47-4,15.45a27.89,27.89,0,0,1-7.21,1.85c-6.58.88-12,3.25-15,9.69-.68,1.45-2.05,2.58-3.09,3.84-10.1-6.49-18,3.71-19.7,11.79a12.89,12.89,0,0,0-.15,4c1.05,9.64,2.19,19.27,3.26,28.91.19,1.75.23,3.51.38,6.1l-4.24-2.16c-.21.52-.35.7-.31.8,1.58,3.42,6.14,5,5.21,10.08-1.76,9.54-.46,20-8,27.72-5.7,5.84-6.81,12.19-4.78,20.11,1.59,6.19,1.28,12.88,1.75,19.35.28,3.8-1.85,5.1-5.3,4.67-1.81-.22-3.59-1-5.39-1-1.36,0-3.31.34-4,1.26-2.31,3.13-4.19,6.59-6.2,9.94-2.73,4.56-5.44,9.14.74,14.08-2,1.19-3.39,2.38-5,2.83a33.68,33.68,0,0,1-8.32,1.55c-7.54.2-11.18,4.64-12.47,11.32-1.1,5.7-3.93,9.72-9.19,12.09h-4c-6.17-2.31-11.78-5.36-15.57-11.07-3.58-5.4-7.59-10.53-10.9-16.09-1.3-2.19-2.58-6.07-1.54-7.66,3.16-4.84,1.17-8.85-.38-13.21-2.72-7.64-5.34-15.32-8-23a25,25,0,0,0-1.54-4.2c-4.19-7.37-8.55-14.66-12.73-22-2.86-5.06-6.66-9.94-8.07-15.41-3.64-14.11-6.55-28.45-9-42.82a23.91,23.91,0,0,0-5.83-12.77c-2.15-2.42-4.09-5.93-4.23-9-.26-5.71-2.46-10.09-5.62-14.57A24.41,24.41,0,0,1,96.3,544.9C94,528.46,92.2,512,90.21,495.48a2.75,2.75,0,0,0-.35-1.44c-4.94-5.36-2.05-11.28-1.29-17.05.15-1.11.19-2.22.31-3.76l-3.16,1c-.23-2.89.08-5.54-.7-7.82-3.07-9-.76-17.34,1.77-25.91.88-3,.46-6.41.21-9.6-.53-6.74-6-14.06,2.64-20.07H84.72c-2.86-4.42,2.17-9.94-4.4-13.9-.77,3.43-1.63,6.41-2.06,9.46s.06,6.42-.81,9.36A11.19,11.19,0,0,1,73,421.33a46.49,46.49,0,0,1-10.21,4.95c-6.07,2.11-12.29,3.79-18.47,5.56a2.3,2.3,0,0,1-1.76-.72c-7-7.07-14-14.13-20.95-21.3-2.39-2.48-4.92-5-6.59-7.94-3-5.24-5.29-10.84-7.88-16.28l1.9-1,3,3.74c13.27,1.31,23.56-3.32,30.71-14.41-1.33,0-3.08,1.17-3.55.78-3.86-3.22-5.9.32-8.22,2.11-3.55,2.73-7.12,3-11.25,1.48C11.72,375.3,5,370.57.28,363.4c-1.62-2.48-1.87-5.85-2.94-9.48l-7.66,2.38-.84-2.16c1.57-.71,3.08-1.86,4.71-2.06,5.51-.7,11.75-.22,10.24-8.87a62.86,62.86,0,0,1,7.55.93c4.59,1.16,10.2-.33,13.29,5.22.34.62,4,0,5.76-.9,4.64-2.32,9.07-5.08,13.73-7.76,1.85,7.21,4.34,7.95,9.1,4.87,2.64-11.53-.24-21.48-2.95-31.75A45.75,45.75,0,0,1,45,312.7c-4.78-1.54-6.41-5-4.75-9.8,3.87-11.13,3.87-11.13-7.63-14.94-.16-.05-.32-.08-.48-.14-4.79-1.7-5.86-4.41-3.13-8.8,1-1.63,2.68-2.87,4.12-4.22,4.31-4.06,9-7.79,12.87-12.24,2.72-3.12,4-3.45,6.67-.06,1.32,1.7,3.69,4.33,5,4,8.57-2.06,19.42,1.7,24.8-9.06.2-.4.78-.61,1.12-1,2.63-2.62,5.27-5.24,7.87-7.89,2.2-2.25,4-5.29,6.62-6.66,8.82-4.57,13.77-12.25,18.31-20.52a26.32,26.32,0,0,1,4.77-5.59c2.9-2.88,6-5.52,8.9-8.43,2.68-2.72,4.67-6.44,7.81-8.34,7.07-4.27,5.88-11.36,6.21-17.42.22-4.16,1.36-6.68,4.55-8.51,2.29-1.31,5.17-1.73,7.24-3.28s3.72-4.12,5.53-6.24c-2.09-1.26-4-3-6.29-3.68-3.61-1.07-6.75-2.15-6.8-6.64,0-3.49-2.45-3.85-5.12-4-9.09-.68-14.89-5.83-15.89-14.82-1-8.64-1.34-17.34-1.93-25.54,4.11-3,8.69-6.1,13-9.57,3.16-2.56,1.44-5-1.39-6.06-4.4-1.65-5.07-4.1-3.17-8.1.5-1.06.36-3.31-.36-3.86-.9-.69-2.79-.46-4.1-.1-1.16.32-2.13,1.37-3.61,2.39a37.61,37.61,0,0,1-2.07-4.25c-1.5-4.47-5.37-4.74-9.11-5.8-1.92-.54-3.38-2.72-5.05-4.16,1.39-1.42,2.83-2.78,4.16-4.26,1.74-1.95,4-3.74,4.93-6,1.19-2.87,2.54-3.71,5.59-3.38,3.8.42,7.67.1,12.25.1l-3-4.19L150,47Z" transform="translate(43 -47)"/><path class="cls-1" d="M150,47l-16.69,4.65,3,4.19c-4.58,0-8.45.32-12.25-.1-3.06-.34-4.4.5-5.59,3.38-1,2.3-3.19,4.09-4.93,6-1.32,1.48-2.77,2.85-4.16,4.26,1.67,1.44,3.13,3.61,5.05,4.16,3.74,1.06,7.61,1.33,9.11,5.8a37.61,37.61,0,0,0,2.07,4.25c1.48-1,2.45-2.07,3.61-2.39,1.32-.36,3.2-.58,4.1.1.72.55.87,2.79.36,3.86-1.9,4-1.23,6.45,3.17,8.1,2.83,1.06,4.55,3.5,1.39,6.06-4.28,3.47-8.87,6.57-13,9.57.6,8.2,1,16.91,1.93,25.54,1,9,6.8,14.15,15.89,14.82,2.66.2,5.08.56,5.12,4,.05,4.48,3.19,5.57,6.8,6.64,2.26.67,4.2,2.42,6.29,3.68-1.82,2.12-3.35,4.61-5.53,6.24s-4.94,2-7.24,3.28c-3.19,1.83-4.32,4.35-4.55,8.51-.33,6.06.86,13.15-6.21,17.42-3.13,1.89-5.12,5.62-7.81,8.34-2.87,2.91-6,5.55-8.9,8.43a26.32,26.32,0,0,0-4.77,5.59C111.8,229.72,106.84,237.4,98,242c-2.65,1.37-4.42,4.42-6.62,6.66-2.6,2.65-5.24,5.27-7.87,7.89-.35.35-.92.55-1.12,1-5.38,10.76-16.23,7-24.8,9.06-1.29.31-3.65-2.32-5-4-2.65-3.4-4-3.06-6.67.06-3.87,4.44-8.56,8.17-12.87,12.24C31.66,276.16,30,277.39,29,279c-2.72,4.38-1.65,7.09,3.13,8.8.16.06.32.09.48.14,11.5,3.8,11.5,3.8,7.63,14.94-1.65,4.76,0,8.26,4.75,9.8a45.75,45.75,0,0,0,5.31,1.13C53,324.09,55.87,334,53.23,345.58c-4.76,3.08-7.24,2.34-9.1-4.87-4.66,2.67-9.09,5.43-13.73,7.76-1.73.87-5.42,1.51-5.76.9-3.09-5.56-8.7-4.06-13.29-5.22a62.86,62.86,0,0,0-7.55-.93c1.51,8.66-4.73,8.17-10.24,8.87-1.63.21-3.14,1.35-4.71,2.06l.84,2.16,7.66-2.38c1.07,3.62,1.32,7,2.94,9.48,4.69,7.17,11.44,11.9,19.53,14.83,4.13,1.5,7.7,1.25,11.25-1.48,2.32-1.78,4.36-5.33,8.22-2.11.47.39,2.22-.76,3.55-.78C35.68,385,25.4,389.59,12.13,388.28l-3-3.74-1.9,1c2.59,5.45,4.93,11,7.88,16.28,1.66,3,4.2,5.46,6.59,7.94,6.91,7.17,13.93,14.23,20.95,21.3a2.3,2.3,0,0,0,1.76.72c6.18-1.77,12.4-3.45,18.47-5.56A46.49,46.49,0,0,0,73,421.33a11.19,11.19,0,0,0,4.41-5.59c.87-2.94.38-6.26.81-9.36s1.29-6,2.06-9.46c6.57,4,1.53,9.48,4.4,13.9h4.91c-8.61,6-3.17,13.34-2.64,20.07.25,3.19.67,6.63-.21,9.6-2.53,8.56-4.84,16.95-1.77,25.91.78,2.28.48,4.93.7,7.82l3.16-1c-.12,1.53-.16,2.65-.31,3.76-.76,5.77-3.65,11.69,1.29,17.05a2.75,2.75,0,0,1,.35,1.44c2,16.48,3.8,33,6.09,49.42a24.41,24.41,0,0,0,4.28,10.24c3.16,4.48,5.36,8.86,5.62,14.57.14,3.11,2.08,6.62,4.23,9a23.91,23.91,0,0,1,5.83,12.77c2.45,14.37,5.35,28.71,9,42.82,1.41,5.47,5.21,10.35,8.07,15.41,4.18,7.38,8.53,14.67,12.73,22a25,25,0,0,1,1.54,4.2c2.66,7.66,5.28,15.34,8,23,1.55,4.36,3.54,8.37.38,13.21-1,1.59.24,5.47,1.54,7.66,3.31,5.55,7.32,10.69,10.9,16.09,3.79,5.71,9.4,8.76,15.57,11.07H-43V47Z" transform="translate(43 -47)"/></svg>