<svg id="Layer_2" data-name="Layer 2" xmlns="http://www.w3.org/2000/svg" viewBox="0 0 39.23 152.92"><defs><style>.cls-1{fill:#fff;}</style></defs><title>Injection</title><path class="cls-1" d="M322.37,448.24h10.31l0,.94H322.45v4.06h10.5l-.06,1H322.43v4H333l0,1.05H322.05l.55,4.08H333v1H322.22l.24,3.88h10.46v1H322.48v4.13H333l-.05,1.07H322.07v20.5l-8.79,2.11c5.3,4.28,33.68,4.31,39.23,0l-9-2.18v-69c-6.47,0-12.45,0-18.42,0a22.27,22.27,0,0,0-2.69.35V433h10.54l0,1.05H322.42v4H333v1H322.19l.29,4.12h10.31v1H322.37Z" transform="translate(-313.27 -364.5)"/><path class="cls-1" d="M347,515.34l.18-1.05-7.62-2.16V502H324.7v10.21l-8.21,2.07C321.18,518.1,343,518.41,347,515.34Z" transform="translate(-313.27 -364.5)"/><path class="cls-1" d="M327,413.85h10.14c.16-6.82.26-13.51-1.76-19.76-1.78-5.53-1.72-11-1.76-16.56,0-3.37,0-6.74,0-10.1,0-.9-.18-1.8-.27-2.7l-1.1-.21c-.5,1.48-1.37,2.95-1.42,4.44-.17,5.36,0,10.73-.11,16.09a16.77,16.77,0,0,1-1,5C327,397.7,326.67,405.57,327,413.85Z" transform="translate(-313.27 -364.5)"/><path class="cls-1" d="M343.44,415.62h-21v8.76h21Z" transform="translate(-313.27 -364.5)"/><path d="M322.37,448.24v-4.1h10.42v-1H322.48l-.29-4.12H333v-1H322.42v-4H332.9l0-1.05H322.4v-6.55a22.27,22.27,0,0,1,2.69-.35c6,0,11.95,0,18.42,0v69l9,2.18c-5.55,4.3-33.93,4.26-39.23,0l8.79-2.11v-20.5H333l.05-1.07H322.48v-4.13h10.44v-1H322.46l-.24-3.88H333v-1H322.6l-.55-4.08h10.89l0-1.05H322.43v-4h10.45l.06-1h-10.5v-4.06h10.19l0-.94Z" transform="translate(-313.27 -364.5)"/><path d="M347,515.34c-4,3.08-25.85,2.76-30.53-1.09l8.21-2.07V502H339.6v10.16l7.62,2.16Z" transform="translate(-313.27 -364.5)"/><path d="M327,413.85c-.35-8.27,0-16.15,2.66-23.81a16.77,16.77,0,0,0,1-5c.13-5.36-.06-10.73.11-16.09,0-1.49.92-3,1.42-4.44l1.1.21c.09.9.26,1.8.27,2.7,0,3.37,0,6.74,0,10.1,0,5.57,0,11,1.76,16.56,2,6.25,1.91,12.95,1.76,19.76Z" transform="translate(-313.27 -364.5)"/><path d="M343.44,415.62v8.76h-21v-8.76Z" transform="translate(-313.27 -364.5)"/></svg>