<svg id="Layer_1" data-name="Layer 1" xmlns="http://www.w3.org/2000/svg" viewBox="0 0 199.94 200"><defs><style>.cls-1{fill:#fff;}</style></defs><title>Man</title><path class="cls-1" d="M293,497H207.06V297H302c-1.3.69-2.61,1.35-3.89,2.07a16.27,16.27,0,0,0-7.39,19.76,16.24,16.24,0,0,0,31.5-5.9c-.14-8.33-5.35-12.76-12.22-15.92h97V497H321c5-2.67,6.41-6.86,6.39-12.4-.14-40.66,0-81.31,0-122a16.45,16.45,0,0,1,.09-4,11.28,11.28,0,0,1,1.82-2.93c.7,1,2,2.07,2,3.15.22,4.82.1,9.66.11,14.49,0,10.33-.1,20.66.13,31,.1,4.71,2.91,7.56,6.58,7.19,3.92-.4,6-2.89,6-6.75,0-17.83.34-35.67-.2-53.48-.34-11.18-8.54-18.22-19.73-18.29q-17.24-.11-34.49,0c-10.65.06-18.92,6.46-19.34,16.92-.75,18.46-.39,37-.27,55.47a6,6,0,0,0,7,6c4.59-.77,5.64-4.24,5.67-8.16.08-9.66,0-19.33,0-29,0-5.33-.08-10.67.11-16,0-.88,1.33-1.72,2-2.57.64.79,1.6,1.49,1.83,2.38a16.39,16.39,0,0,1,.1,4c0,40.82.08,81.65-.11,122.47C286.69,490.1,288.15,494.23,293,497Z" transform="translate(-207.06 -297)"/><path d="M293,497c-4.85-2.77-6.31-6.9-6.28-12.46.2-40.82.11-81.65.11-122.47a16.39,16.39,0,0,0-.1-4c-.23-.89-1.2-1.6-1.83-2.38-.71.86-2,1.69-2,2.57-.2,5.32-.11,10.66-.11,16,0,9.66,0,19.33,0,29,0,3.93-1.08,7.39-5.67,8.16a6,6,0,0,1-7-6c-.12-18.49-.49-37,.27-55.47.43-10.46,8.7-16.86,19.34-16.92q17.25-.09,34.49,0c11.19.07,19.39,7.11,19.73,18.29.54,17.81.23,35.65.2,53.48,0,3.85-2,6.35-6,6.75-3.67.37-6.47-2.47-6.58-7.19-.23-10.33-.11-20.66-.13-31,0-4.83.12-9.67-.11-14.49,0-1.08-1.31-2.1-2-3.15a11.28,11.28,0,0,0-1.82,2.93,16.45,16.45,0,0,0-.09,4c0,40.66-.12,81.31,0,122,0,5.54-1.4,9.73-6.39,12.4h-6c-4.74-3.13-6.14-7.48-6.07-13.14.28-22,.12-44,.13-65.93,0-2.13,0-4.26,0-6.35-4.77-1.54-4,1.6-4,3.91,0,23-.16,46,.09,68.93.06,5.53-1.51,9.64-6.12,12.58Z" transform="translate(-207.06 -297)"/><path d="M310,297c6.87,3.16,12.07,7.6,12.22,15.92a16.24,16.24,0,0,1-31.5,5.9,16.27,16.27,0,0,1,7.39-19.76c1.28-.72,2.59-1.38,3.89-2.07Z" transform="translate(-207.06 -297)"/><path class="cls-1" d="M299,497c4.62-2.94,6.18-7.05,6.12-12.58-.25-23-.11-46-.09-68.93,0-2.31-.74-5.45,4-3.91,0,2.09,0,4.22,0,6.35,0,22,.15,44-.13,65.93-.07,5.66,1.33,10,6.07,13.14Z" transform="translate(-207.06 -297)"/></svg>