<?xml version="1.0" encoding="utf-8"?>
<!-- Generator: Adobe Illustrator 17.0.0, SVG Export Plug-In . SVG Version: 6.00 Build 0)  -->
<!DOCTYPE svg PUBLIC "-//W3C//DTD SVG 1.1//EN" "http://www.w3.org/Graphics/SVG/1.1/DTD/svg11.dtd">
<svg version="1.1" xmlns="http://www.w3.org/2000/svg" xmlns:xlink="http://www.w3.org/1999/xlink" x="0px" y="0px"
	 width="232.516px" height="53.801px" viewBox="0 0 232.516 53.801" enable-background="new 0 0 232.516 53.801"
	 xml:space="preserve">
<g id="BACKGROUND">
</g>
<g id="DESIGNED_BY_FREEPIK">
</g>
<g id="OBJECTS">
	<g>
		<g>
			<polyline fill="none" stroke="#0E0E0E" stroke-width="3" stroke-miterlimit="10" points="149.671,18.373 116.365,51.68 
				83.057,18.373 			"/>
			<polyline fill="none" stroke="#0E0E0E" stroke-width="3" stroke-miterlimit="10" points="138.428,2.123 115.344,25.207 
				92.26,2.123 			"/>
			<polyline fill="none" stroke="#0E0E0E" stroke-width="3" stroke-miterlimit="10" points="149.671,35.428 116.365,2.121 
				83.057,35.43 			"/>
			<polyline fill="none" stroke="#0E0E0E" stroke-width="3" stroke-miterlimit="10" points="138.428,51.68 115.344,28.596 
				92.26,51.68 			"/>
		</g>
		<g>
			<polygon fill="none" stroke="#0E0E0E" stroke-width="3" stroke-miterlimit="10" points="40.769,11.344 33.338,26.901 
				40.769,42.457 3.862,26.901 			"/>
			<line fill="none" stroke="#0E0E0E" stroke-width="3" stroke-miterlimit="10" x1="90.938" y1="26.901" x2="33.307" y2="26.901"/>
		</g>
		<g>
			<polygon fill="none" stroke="#0E0E0E" stroke-width="3" stroke-miterlimit="10" points="191.748,11.344 199.178,26.901 
				191.748,42.457 228.654,26.901 			"/>
			
				<line fill="none" stroke="#0E0E0E" stroke-width="3" stroke-miterlimit="10" x1="141.579" y1="26.901" x2="199.209" y2="26.901"/>
		</g>
		<path fill="none" stroke="#0E0E0E" stroke-width="3" stroke-miterlimit="10" d="M46.344,21.563c0,0.75,0,11.5,0,11.5"/>
		<path fill="none" stroke="#0E0E0E" stroke-width="3" stroke-miterlimit="10" d="M187.344,21.563c0,0.75,0,11.5,0,11.5"/>
	</g>
</g>
</svg>
