<?xml version="1.0" encoding="utf-8"?>
<!-- Generator: Adobe Illustrator 17.0.0, SVG Export Plug-In . SVG Version: 6.00 Build 0)  -->
<!DOCTYPE svg PUBLIC "-//W3C//DTD SVG 1.1//EN" "http://www.w3.org/Graphics/SVG/1.1/DTD/svg11.dtd">
<svg version="1.1" id="Layer_1" xmlns="http://www.w3.org/2000/svg" xmlns:xlink="http://www.w3.org/1999/xlink" x="0px" y="0px"
	 width="100.185px" height="442.468px" viewBox="0 0 100.185 442.468" enable-background="new 0 0 100.185 442.468"
	 xml:space="preserve">
<g>
	
		<line fill="none" stroke="#0E0E0E" stroke-width="4" stroke-miterlimit="10" x1="-507.898" y1="325.524" x2="-452.435" y2="325.524"/>
	
		<line fill="none" stroke="#0E0E0E" stroke-width="4" stroke-miterlimit="10" x1="-304.926" y1="325.524" x2="-398.386" y2="325.524"/>
	<g>
		<g>
			<polyline fill="none" stroke="#0E0E0E" stroke-width="4" stroke-miterlimit="10" points="-499.748,358.831 -466.442,325.524 
				-499.748,292.218 			"/>
			<polyline fill="none" stroke="#0E0E0E" stroke-width="4" stroke-miterlimit="10" points="-506.419,348.853 -483.089,325.524 
				-506.419,302.195 			"/>
			<polyline fill="none" stroke="#0E0E0E" stroke-width="4" stroke-miterlimit="10" points="-513.152,339.514 -499.162,325.524 
				-513.152,311.536 			"/>
		</g>
		<polygon fill="none" stroke="#0E0E0E" stroke-width="4" stroke-miterlimit="10" points="-304.926,301.972 -304.926,349.075 
			-272.932,325.523 		"/>
		
			<rect x="-355.186" y="312.767" transform="matrix(-0.7071 0.7071 -0.7071 -0.7071 -354.3656 797.8382)" fill="none" stroke="#0E0E0E" stroke-width="4" stroke-miterlimit="10" width="25.517" height="25.515"/>
		<path fill="none" stroke="#0E0E0E" stroke-width="4" stroke-miterlimit="10" d="M-421.771,302.139
			c12.915,0,23.385,10.47,23.385,23.385c0,12.915-10.47,23.385-23.385,23.385c-0.017,0-0.033-0.001-0.05-0.001V302.14
			C-421.804,302.14-421.787,302.139-421.771,302.139z"/>
		<path fill="none" stroke="#0E0E0E" stroke-width="4" stroke-miterlimit="10" d="M-452.489,325.524
			c0-12.898,10.443-23.356,23.336-23.384v46.768C-442.046,348.881-452.489,338.423-452.489,325.524z"/>
	</g>
</g>
<g>
	<g>
		<circle fill="none" stroke="#0E0E0E" stroke-width="5" stroke-miterlimit="10" cx="50.092" cy="87.614" r="12.99"/>
		<polyline fill="none" stroke="#0E0E0E" stroke-width="5" stroke-miterlimit="10" points="16.785,208.909 50.092,175.602 
			83.399,208.909 		"/>
		<polyline fill="none" stroke="#0E0E0E" stroke-width="5" stroke-miterlimit="10" points="94.58,323.499 50.094,367.985 
			5.607,323.499 		"/>
		<polyline fill="none" stroke="#0E0E0E" stroke-width="5" stroke-miterlimit="10" points="83.399,301.907 50.093,335.214 
			16.785,301.907 		"/>
		<polygon fill="none" stroke="#0E0E0E" stroke-width="5" stroke-miterlimit="10" points="68.779,60.079 50.422,51.311 
			32.065,60.079 50.422,4.762 		"/>
		<polygon fill="none" stroke="#0E0E0E" stroke-width="5" stroke-miterlimit="10" points="73.645,142.831 26.541,142.831 
			50.093,116.831 		"/>
		<g>
			
				<rect x="26.541" y="232.892" transform="matrix(0.7071 0.7071 -0.7071 0.7071 196.011 39.6938)" fill="none" stroke="#0E0E0E" stroke-width="5" stroke-miterlimit="10" width="47.104" height="47.103"/>
			
				<rect x="34.702" y="274.03" transform="matrix(0.7071 0.7071 -0.7071 0.7071 218.6519 49.6269)" fill="none" stroke="#0E0E0E" stroke-width="5" stroke-miterlimit="10" width="29.439" height="29.44"/>
			
				<rect x="34.701" y="207.984" transform="matrix(0.7071 0.7071 -0.7071 0.7071 171.9596 30.2884)" fill="none" stroke="#0E0E0E" stroke-width="5" stroke-miterlimit="10" width="29.44" height="29.44"/>
		</g>
		<line fill="none" stroke="#0E0E0E" stroke-width="5" stroke-miterlimit="10" x1="50.092" y1="175.602" x2="50.092" y2="142.831"/>
		<line fill="none" stroke="#0E0E0E" stroke-width="5" stroke-miterlimit="10" x1="50.092" y1="392.487" x2="50.092" y2="335.214"/>
		<line fill="none" stroke="#0E0E0E" stroke-width="5" stroke-miterlimit="10" x1="50.093" y1="116.831" x2="50.093" y2="100.604"/>
		<line fill="none" stroke="#0E0E0E" stroke-width="5" stroke-miterlimit="10" x1="50.093" y1="74.626" x2="50.093" y2="52.399"/>
		<line fill="none" stroke="#0E0E0E" stroke-width="5" stroke-miterlimit="10" x1="44.035" y1="152.163" x2="14.702" y2="152.163"/>
		<line fill="none" stroke="#0E0E0E" stroke-width="5" stroke-miterlimit="10" x1="86.368" y1="152.163" x2="57.035" y2="152.163"/>
		<g>
			<line fill="none" stroke="#0E0E0E" stroke-width="5" stroke-miterlimit="10" x1="41.092" y1="341.436" x2="1.061" y2="301.405"/>
			
				<line fill="none" stroke="#0E0E0E" stroke-width="5" stroke-miterlimit="10" x1="99.124" y1="301.405" x2="59.866" y2="340.663"/>
		</g>
		<polyline fill="none" stroke="#0E0E0E" stroke-width="5" stroke-miterlimit="10" points="59.866,244.581 71.702,256.442 
			59.866,267.932 		"/>
		<polyline fill="none" stroke="#0E0E0E" stroke-width="5" stroke-miterlimit="10" points="40.017,244.319 28.181,256.182 
			40.017,267.671 		"/>
		<g>
			<line fill="none" stroke="#0E0E0E" stroke-width="5" stroke-miterlimit="10" x1="41.092" y1="164.944" x2="1.061" y2="204.975"/>
			
				<line fill="none" stroke="#0E0E0E" stroke-width="5" stroke-miterlimit="10" x1="99.124" y1="204.975" x2="59.866" y2="165.717"/>
		</g>
	</g>
	
		<rect x="32.838" y="398.645" transform="matrix(-0.7071 0.7071 -0.7071 -0.7071 379.6166 674.6104)" fill="none" stroke="#0E0E0E" stroke-width="5" stroke-miterlimit="10" width="34.507" height="34.563"/>
	
		<rect x="43.099" y="408.922" transform="matrix(-0.7071 0.7071 -0.7071 -0.7071 379.6221 674.6036)" fill="none" stroke="#0E0E0E" stroke-width="5" stroke-miterlimit="10" width="13.986" height="14.008"/>
</g>
</svg>
