<?xml version="1.0" encoding="utf-8"?>
<!-- Generator: Adobe Illustrator 17.0.0, SVG Export Plug-In . SVG Version: 6.00 Build 0)  -->
<!DOCTYPE svg PUBLIC "-//W3C//DTD SVG 1.1//EN" "http://www.w3.org/Graphics/SVG/1.1/DTD/svg11.dtd">
<svg version="1.1" id="Layer_1" xmlns="http://www.w3.org/2000/svg" xmlns:xlink="http://www.w3.org/1999/xlink" x="0px" y="0px"
	 width="23.978px" height="23.976px" viewBox="0 0 23.978 23.976" enable-background="new 0 0 23.978 23.976" xml:space="preserve">
<rect x="-94.258" y="-69.612" display="none" fill-rule="evenodd" clip-rule="evenodd" fill="#F9F9F9" width="287.997" height="287.999"/>
<g>
	<g>
		<path fill="#00C7FF" d="M23.39,8.283c1.605,4.939-0.153,10.35-4.355,13.403c-4.202,3.053-9.891,3.053-14.093,0
			c-4.202-3.053-5.96-8.464-4.355-13.403C2.193,3.344,6.796,0,11.989,0C17.182,0,21.785,3.344,23.39,8.283z M11.989,1.08
			c-4.726,0-8.914,3.043-10.374,7.537c-1.461,4.494,0.139,9.418,3.962,12.195c3.823,2.778,9,2.778,12.823,0
			c3.823-2.777,5.423-7.701,3.962-12.195C20.903,4.123,16.715,1.08,11.989,1.08z"/>
	</g>
	<path fill-rule="evenodd" clip-rule="evenodd" fill="#00C7FF" d="M10.213,14.589c-1.208-0.042-1.962-0.909-2.162-1.613
		c0.336,0.064,0.667,0.052,0.996-0.029c0.009-0.002,0.017-0.008,0.034-0.016c-0.654-0.152-1.159-0.502-1.51-1.066
		c-0.232-0.375-0.344-0.785-0.34-1.235c0.327,0.174,0.668,0.271,1.034,0.281c-0.492-0.355-0.822-0.817-0.957-1.41
		c-0.134-0.591-0.047-1.152,0.25-1.683c1.258,1.481,2.851,2.295,4.793,2.429c-0.013-0.093-0.028-0.173-0.037-0.255
		c-0.065-0.547,0.044-1.057,0.34-1.52c0.369-0.58,0.898-0.94,1.576-1.051c0.782-0.128,1.464,0.095,2.035,0.648
		c0.038,0.037,0.07,0.049,0.123,0.037c0.478-0.104,0.928-0.276,1.352-0.52c0.01-0.006,0.02-0.011,0.031-0.016
		c0.002-0.001,0.006-0.001,0.015-0.001c-0.184,0.54-0.519,0.957-0.995,1.265c0.45-0.05,0.88-0.169,1.295-0.349
		c0.003,0.004,0.006,0.008,0.009,0.011c-0.089,0.116-0.175,0.235-0.267,0.349c-0.247,0.304-0.53,0.571-0.845,0.803
		c-0.027,0.02-0.039,0.038-0.038,0.073c0.013,0.345,0,0.689-0.043,1.031c-0.09,0.723-0.291,1.411-0.599,2.069
		c-0.318,0.68-0.733,1.293-1.256,1.832c-0.885,0.915-1.952,1.506-3.194,1.78c-0.426,0.094-0.858,0.141-1.295,0.153
		c-1.34,0.039-2.579-0.294-3.719-0.998c-0.015-0.009-0.029-0.019-0.055-0.035c0.811,0.087,1.582-0.017,2.325-0.32
		C9.502,15.071,9.867,14.859,10.213,14.589z"/>
</g>
</svg>
