<?xml version="1.0" encoding="utf-8"?>
<!-- Generator: Adobe Illustrator 17.0.0, SVG Export Plug-In . SVG Version: 6.00 Build 0)  -->
<!DOCTYPE svg PUBLIC "-//W3C//DTD SVG 1.1//EN" "http://www.w3.org/Graphics/SVG/1.1/DTD/svg11.dtd">
<svg version="1.1" id="Layer_1" xmlns="http://www.w3.org/2000/svg" xmlns:xlink="http://www.w3.org/1999/xlink" x="0px" y="0px"
	 width="145.73px" height="145.73px" viewBox="0 0 145.73 145.73" enable-background="new 0 0 145.73 145.73" xml:space="preserve">
<g>
	<circle fill="#F4F1DE" cx="72.865" cy="72.865" r="72.865"/>
	<g>
		<path fill="#3D405B" d="M140.125,72.865c0,37.145-30.115,67.26-67.26,67.26c-37.145,0-67.26-30.115-67.26-67.26
			c0-9.849,2.114-19.201,5.918-27.625C22.059,21.875,45.569,5.605,72.865,5.605c27.296,0,50.805,16.27,61.342,39.635
			C138.011,53.664,140.125,63.016,140.125,72.865z"/>
		<path fill="#FFFFFF" d="M77.511,49.581c0-5.138,4.372-4.373,4.372-4.373h13.774V29.905h-20.66
			c-15.632,0-16.035,17.162-16.035,17.162v11.696v0.046l-8.889,0.064v13.992h8.889v42.96h18.549v-42.96h15.741l2.405-14.32
			l-18.146,0.13v-0.13C77.511,58.545,77.511,54.719,77.511,49.581z"/>
	</g>
</g>
</svg>
