<?xml version="1.0" encoding="utf-8"?>
<!-- Generator: Adobe Illustrator 17.0.0, SVG Export Plug-In . SVG Version: 6.00 Build 0)  -->
<!DOCTYPE svg PUBLIC "-//W3C//DTD SVG 1.1//EN" "http://www.w3.org/Graphics/SVG/1.1/DTD/svg11.dtd">
<svg version="1.1" id="Layer_1" xmlns="http://www.w3.org/2000/svg" xmlns:xlink="http://www.w3.org/1999/xlink" x="0px" y="0px"
	 width="145.731px" height="145.73px" viewBox="0 0 145.731 145.73" enable-background="new 0 0 145.731 145.73"
	 xml:space="preserve">
<g>
	<circle fill="#F4F1DE" cx="72.865" cy="72.865" r="72.865"/>
	<g>
		<path fill="#3D405B" d="M140.126,72.865c0,37.145-30.115,67.26-67.26,67.26c-37.145,0-67.26-30.115-67.26-67.26
			c0-9.849,2.115-19.201,5.918-27.625C22.061,21.875,45.569,5.605,72.865,5.605c27.296,0,50.805,16.27,61.342,39.635
			C138.011,53.664,140.126,63.016,140.126,72.865z"/>
		<g>
			<g>
				<path fill="#FFFFFF" d="M91.511,105.752h-37.29c-7.724,0-14.007-6.14-14.007-13.687v-38.4c0-7.546,6.283-13.686,14.007-13.686
					h37.29c7.722,0,14.006,6.14,14.006,13.686v38.4C105.517,99.612,99.234,105.752,91.511,105.752z M54.221,45.616
					c-4.615,0-8.37,3.611-8.37,8.049v38.4c0,4.439,3.754,8.049,8.37,8.049h37.29c4.614,0,8.368-3.61,8.368-8.049v-38.4
					c0-4.438-3.754-8.049-8.368-8.049H54.221z"/>
			</g>
			<g>
				<path fill="#FFFFFF" d="M72.865,89.936c-9.411,0-17.07-7.658-17.07-17.071c0-9.413,7.659-17.071,17.07-17.071
					c9.414,0,17.071,7.658,17.071,17.071C89.937,82.278,82.28,89.936,72.865,89.936z M72.865,61.431
					c-6.305,0-11.432,5.129-11.432,11.434c0,6.304,5.127,11.433,11.432,11.433c6.305,0,11.434-5.129,11.434-11.433
					C84.299,66.56,79.171,61.431,72.865,61.431z"/>
			</g>
			<circle fill="#FFFFFF" cx="91.189" cy="54.935" r="3.993"/>
		</g>
	</g>
</g>
</svg>
