<?xml version="1.0" encoding="utf-8"?>
<!-- Generator: Adobe Illustrator 17.0.0, SVG Export Plug-In . SVG Version: 6.00 Build 0)  -->
<!DOCTYPE svg PUBLIC "-//W3C//DTD SVG 1.1//EN" "http://www.w3.org/Graphics/SVG/1.1/DTD/svg11.dtd">
<svg version="1.1" id="Layer_1" xmlns="http://www.w3.org/2000/svg" xmlns:xlink="http://www.w3.org/1999/xlink" x="0px" y="0px"
	 width="74.559px" height="113.729px" viewBox="0 0 74.559 113.729" enable-background="new 0 0 74.559 113.729"
	 xml:space="preserve">
<path id="RDV_Logo" fill="#FFFFFF" d="M45.114,113.729c0,0,4.593-15.348,14.977-25.05c0.001,0.018-14.556-1.836-24.736-8.221
	c-5.035-2.6-23.964-16.363-26.662-38.623c0.492-6.987,7.66-21.955,25.794-27.483c10.168-3.245,22.771-0.954,24.739,0.481
	c1.601,1.951,1.364,14.368-7.523,21.579c-0.249-0.015-6.142-4.363-6.687-10.103c0.006,0.11-3.287,6.088,1.759,12.819
	c3.209,1.742,19.83,2.113,27.784-14.159c-0.868-3.54-6.115-19.633-24.993-23.888c0,0-13.127-3.748-24.364,2.708
	S11.264,15.292,5.63,26.361s-8.206,30.337-2.142,47.197s19.63,31.607,40.69,39.975"/>
</svg>
