<?xml version="1.0" encoding="utf-8"?>
<!-- Generator: Adobe Illustrator 17.0.0, SVG Export Plug-In . SVG Version: 6.00 Build 0)  -->
<!DOCTYPE svg PUBLIC "-//W3C//DTD SVG 1.1//EN" "http://www.w3.org/Graphics/SVG/1.1/DTD/svg11.dtd">
<svg version="1.1" id="Layer_1" xmlns="http://www.w3.org/2000/svg" xmlns:xlink="http://www.w3.org/1999/xlink" x="0px" y="0px"
	 width="145.73px" height="145.73px" viewBox="0 0 145.73 145.73" enable-background="new 0 0 145.73 145.73" xml:space="preserve">
<g>
	<circle fill="#F4F1DE" cx="72.865" cy="72.865" r="72.865"/>
	<g>
		<path fill="#3D405B" d="M140.125,72.865c0,37.145-30.115,67.26-67.26,67.26c-37.145,0-67.26-30.115-67.26-67.26
			c0-9.849,2.114-19.201,5.917-27.625C22.059,21.875,45.569,5.605,72.865,5.605s50.805,16.27,61.342,39.635
			C138.01,53.664,140.125,63.016,140.125,72.865z"/>
		<path fill="#FFFFFF" d="M100.614,52.922c0,0,5.471-4.43,5.906-8.077c0,0-3.736,2.692-9.295,3.561c0,0-5.123-6.34-14.677-4.082
			c-9.554,2.258-11.551,12.94-10.421,17.196c0,0-16.589,0.261-30.137-15.112c0,0-6.6,11.03,4.776,19.541c0,0-5.459-0.347-6.68-1.737
			c0,0-0.528,11.551,11.891,14.417c0,0-2.953,1.042-6.774,0.608c0,0,3.213,9.553,13.722,9.814c0,0-9.553,7.903-21.885,6.166
			c0,0,12.995,9.575,30.74,5.789c0.846-0.181,1.702-0.391,2.569-0.634c11.245-3.418,20.971-10.713,26.36-21.286
			c0.356-0.686,0.704-1.397,1.036-2.134c2.337-5.154,4.015-11.519,3.651-18.906c0,0,5.557-3.908,7.294-7.382
			C108.69,50.664,105.128,52.314,100.614,52.922z"/>
	</g>
</g>
</svg>
